<svg xmlns="http://www.w3.org/2000/svg" xmlns:xlink="http://www.w3.org/1999/xlink" width="500" zoomAndPan="magnify" viewBox="0 0 375 374.999991" height="500" preserveAspectRatio="xMidYMid meet" version="1.0"><defs><g/><clipPath id="61991a2714"><path d="M 165.367188 122.207031 L 209.617188 122.207031 L 209.617188 166.457031 L 165.367188 166.457031 Z M 165.367188 122.207031 " clip-rule="nonzero"/></clipPath><clipPath id="8e3a422b95"><path d="M 143.894531 100.144531 L 230.894531 100.144531 L 230.894531 187.144531 L 143.894531 187.144531 Z M 143.894531 100.144531 " clip-rule="nonzero"/></clipPath></defs><g clip-path="url(#61991a2714)"><path fill="#625054" d="M 207.152344 147.019531 C 206.726562 146.589844 206.246094 146.222656 205.714844 145.921875 C 205.1875 145.621094 204.625 145.398438 204.035156 145.25 C 203.441406 145.105469 202.84375 145.042969 202.234375 145.0625 C 201.625 145.082031 201.03125 145.183594 200.449219 145.367188 L 199.910156 144.835938 L 200.179688 144.566406 C 200.378906 144.367188 200.535156 144.136719 200.640625 143.875 C 200.75 143.617188 200.804688 143.34375 200.804688 143.0625 C 200.804688 142.78125 200.75 142.507812 200.640625 142.25 C 200.535156 141.988281 200.378906 141.757812 200.179688 141.558594 L 198.613281 139.992188 C 198.648438 139.835938 198.667969 139.675781 198.667969 139.515625 C 198.667969 138.929688 198.460938 138.425781 198.046875 138.011719 L 196.476562 136.445312 C 196.515625 136.289062 196.535156 136.128906 196.535156 135.96875 C 196.535156 135.382812 196.324219 134.882812 195.910156 134.464844 L 195.082031 133.636719 C 194.820312 133.375 194.515625 133.195312 194.160156 133.09375 C 193.808594 132.992188 193.453125 132.984375 193.09375 133.070312 L 191.519531 131.507812 C 191.320312 131.308594 191.089844 131.152344 190.828125 131.042969 C 190.566406 130.9375 190.296875 130.882812 190.011719 130.882812 C 189.730469 130.882812 189.457031 130.9375 189.195312 131.042969 C 188.933594 131.152344 188.703125 131.308594 188.503906 131.507812 L 187.527344 132.480469 L 186.371094 131.332031 C 186.550781 130.730469 186.648438 130.117188 186.65625 129.492188 C 186.667969 128.863281 186.589844 128.25 186.425781 127.644531 C 186.261719 127.039062 186.019531 126.46875 185.695312 125.929688 C 185.371094 125.394531 184.980469 124.910156 184.523438 124.484375 C 184.0625 124.058594 183.554688 123.703125 182.996094 123.417969 C 182.4375 123.136719 181.847656 122.933594 181.234375 122.8125 C 180.617188 122.695312 180 122.664062 179.375 122.71875 C 178.75 122.773438 178.144531 122.914062 177.558594 123.136719 C 177.324219 123.234375 177.179688 123.40625 177.128906 123.65625 C 177.078125 123.90625 177.144531 124.121094 177.324219 124.300781 L 180.675781 127.636719 C 180.972656 127.933594 181.125 128.296875 181.128906 128.71875 C 181.140625 129.097656 181.015625 129.421875 180.757812 129.699219 C 180.617188 129.839844 180.453125 129.949219 180.265625 130.023438 C 180.078125 130.09375 179.882812 130.128906 179.683594 130.125 C 179.480469 130.117188 179.289062 130.074219 179.109375 129.992188 C 178.925781 129.90625 178.765625 129.789062 178.632812 129.640625 L 175.304688 126.300781 C 175.21875 126.21875 175.121094 126.160156 175.007812 126.125 C 174.894531 126.089844 174.78125 126.085938 174.664062 126.109375 C 174.546875 126.132812 174.445312 126.183594 174.351562 126.257812 C 174.261719 126.332031 174.191406 126.425781 174.148438 126.535156 C 173.886719 127.207031 173.734375 127.90625 173.699219 128.628906 C 173.664062 129.347656 173.742188 130.058594 173.9375 130.753906 C 174.132812 131.449219 174.433594 132.09375 174.839844 132.691406 C 175.246094 133.289062 175.738281 133.808594 176.3125 134.246094 C 177.167969 134.917969 178.132812 135.347656 179.203125 135.542969 C 180.269531 135.738281 181.324219 135.671875 182.363281 135.34375 L 182.449219 135.429688 L 179.566406 138.273438 C 179.429688 138.414062 179.359375 138.582031 179.363281 138.777344 L 179.363281 144.886719 L 177.558594 146.816406 L 177.007812 146.253906 C 176.867188 146.113281 176.699219 146.046875 176.503906 146.046875 C 176.304688 146.046875 176.136719 146.113281 176 146.253906 L 172.453125 149.800781 C 172.3125 149.941406 172.242188 150.109375 172.242188 150.304688 C 172.242188 150.503906 172.3125 150.667969 172.453125 150.808594 L 172.664062 151.015625 L 165.359375 158.339844 L 166.367188 159.347656 L 173.664062 152.042969 L 180.46875 158.84375 L 173.871094 165.433594 L 174.878906 166.441406 L 181.46875 159.84375 L 181.675781 160.058594 C 181.8125 160.199219 181.980469 160.269531 182.179688 160.269531 C 182.375 160.269531 182.542969 160.199219 182.679688 160.058594 L 186.226562 156.511719 C 186.367188 156.371094 186.4375 156.203125 186.4375 156.007812 C 186.4375 155.8125 186.367188 155.644531 186.226562 155.503906 L 185.839844 155.121094 L 187.492188 153.347656 L 191.09375 153.347656 C 191.289062 153.347656 191.457031 153.28125 191.597656 153.140625 L 195.902344 148.84375 L 196.429688 149.363281 C 196.101562 150.398438 196.035156 151.449219 196.226562 152.519531 C 196.421875 153.589844 196.855469 154.550781 197.527344 155.40625 C 198.167969 156.226562 198.957031 156.867188 199.890625 157.324219 C 200.824219 157.785156 201.8125 158.015625 202.855469 158.023438 C 203.683594 158.023438 204.484375 157.867188 205.253906 157.554688 C 205.488281 157.460938 205.632812 157.285156 205.683594 157.035156 C 205.730469 156.789062 205.667969 156.574219 205.484375 156.398438 L 202.136719 153.058594 C 201.835938 152.757812 201.6875 152.394531 201.683594 151.972656 C 201.6875 151.59375 201.816406 151.265625 202.082031 150.992188 C 202.222656 150.859375 202.386719 150.753906 202.566406 150.683594 C 202.75 150.613281 202.9375 150.582031 203.132812 150.585938 C 203.328125 150.589844 203.515625 150.632812 203.695312 150.710938 C 203.875 150.789062 204.03125 150.902344 204.167969 151.042969 L 207.523438 154.382812 C 207.699219 154.5625 207.914062 154.625 208.160156 154.574219 C 208.410156 154.527344 208.582031 154.382812 208.679688 154.148438 C 208.917969 153.546875 209.0625 152.921875 209.117188 152.273438 C 209.171875 151.628906 209.128906 150.988281 208.992188 150.355469 C 208.859375 149.71875 208.632812 149.121094 208.320312 148.550781 C 208.007812 147.984375 207.617188 147.472656 207.152344 147.019531 Z M 199.398438 143.0625 C 199.402344 143.257812 199.332031 143.425781 199.195312 143.566406 L 196.285156 146.460938 L 196.222656 146.523438 C 196.082031 146.664062 195.914062 146.734375 195.71875 146.734375 C 195.523438 146.734375 195.355469 146.664062 195.214844 146.523438 L 194.378906 145.695312 C 194.238281 145.554688 194.167969 145.386719 194.167969 145.191406 C 194.167969 144.992188 194.238281 144.824219 194.378906 144.6875 L 194.796875 144.277344 L 197.855469 141.226562 L 199.203125 142.53125 C 199.34375 142.679688 199.410156 142.855469 199.398438 143.0625 Z M 197.273438 139.515625 C 197.273438 139.710938 197.203125 139.878906 197.066406 140.019531 L 193.796875 143.238281 L 193.378906 143.660156 C 193.238281 143.796875 193.070312 143.867188 192.875 143.867188 C 192.675781 143.867188 192.507812 143.796875 192.371094 143.660156 L 192.3125 143.601562 C 192.664062 143.4375 192.972656 143.21875 193.25 142.949219 L 194.085938 142.121094 C 194.226562 141.980469 194.296875 141.8125 194.296875 141.617188 C 194.296875 141.417969 194.226562 141.25 194.085938 141.113281 L 193.164062 140.195312 L 195.71875 137.652344 L 197.074219 138.984375 C 197.214844 139.132812 197.277344 139.3125 197.265625 139.515625 Z M 194.09375 134.636719 L 194.945312 135.4375 C 195.085938 135.578125 195.15625 135.746094 195.15625 135.941406 C 195.15625 136.136719 195.085938 136.304688 194.945312 136.445312 L 192.1875 139.195312 L 190.34375 137.359375 L 193.101562 134.609375 C 193.242188 134.480469 193.410156 134.417969 193.601562 134.421875 C 193.792969 134.429688 193.953125 134.5 194.085938 134.636719 Z M 189.527344 132.507812 C 189.664062 132.367188 189.835938 132.292969 190.035156 132.292969 C 190.234375 132.292969 190.402344 132.367188 190.539062 132.507812 L 191.875 133.839844 L 189.320312 136.386719 L 187.726562 134.800781 C 187.640625 134.714844 187.539062 134.648438 187.449219 134.570312 Z M 182.292969 133.863281 C 181.4375 134.207031 180.558594 134.3125 179.648438 134.1875 C 178.738281 134.058594 177.917969 133.714844 177.191406 133.152344 C 176.429688 132.570312 175.867188 131.835938 175.503906 130.945312 C 175.144531 130.058594 175.03125 129.136719 175.167969 128.1875 L 177.660156 130.679688 C 177.925781 130.949219 178.238281 131.160156 178.585938 131.3125 C 178.9375 131.460938 179.304688 131.539062 179.6875 131.542969 C 180.070312 131.550781 180.4375 131.480469 180.792969 131.34375 C 181.148438 131.203125 181.460938 131 181.738281 130.734375 C 182.285156 130.1875 182.558594 129.523438 182.554688 128.75 C 182.554688 127.933594 182.261719 127.238281 181.679688 126.664062 L 179.183594 124.144531 C 180.015625 124.019531 180.828125 124.089844 181.628906 124.355469 C 182.425781 124.621094 183.117188 125.050781 183.710938 125.648438 C 184.074219 126.003906 184.382812 126.40625 184.628906 126.851562 C 184.875 127.296875 185.050781 127.769531 185.15625 128.265625 C 185.265625 128.761719 185.296875 129.265625 185.253906 129.773438 C 185.210938 130.28125 185.097656 130.773438 184.910156 131.246094 C 184.792969 131.535156 184.84375 131.789062 185.066406 132.011719 L 186.53125 133.488281 L 186.101562 133.917969 C 185.148438 133.707031 184.277344 133.886719 183.488281 134.464844 L 183.050781 134.019531 C 182.828125 133.796875 182.574219 133.746094 182.285156 133.863281 Z M 182.179688 158.554688 L 173.957031 150.332031 L 176.503906 147.785156 L 184.722656 156.007812 Z M 190.804688 151.929688 L 187.179688 151.929688 C 186.972656 151.929688 186.800781 152.003906 186.660156 152.15625 L 184.835938 154.121094 L 178.566406 147.84375 L 180.589844 145.671875 C 180.714844 145.539062 180.78125 145.375 180.78125 145.191406 L 180.78125 139.105469 L 184.085938 135.804688 C 184.265625 135.636719 184.46875 135.507812 184.695312 135.417969 C 184.921875 135.324219 185.160156 135.28125 185.40625 135.28125 C 185.652344 135.28125 185.886719 135.324219 186.117188 135.417969 C 186.34375 135.507812 186.546875 135.636719 186.726562 135.804688 L 192.578125 141.644531 L 192.25 141.96875 C 192.050781 142.171875 191.820312 142.328125 191.558594 142.4375 C 191.296875 142.546875 191.023438 142.601562 190.738281 142.601562 C 190.457031 142.601562 190.183594 142.546875 189.921875 142.4375 C 189.660156 142.328125 189.429688 142.171875 189.230469 141.96875 L 186.261719 138.984375 C 186.125 138.84375 185.957031 138.777344 185.761719 138.777344 C 185.5625 138.777344 185.394531 138.84375 185.257812 138.984375 C 185.117188 139.125 185.046875 139.292969 185.046875 139.488281 C 185.046875 139.683594 185.117188 139.851562 185.257812 139.992188 C 185.503906 140.238281 185.722656 140.503906 185.917969 140.792969 C 186.113281 141.085938 186.277344 141.390625 186.410156 141.710938 C 186.546875 142.035156 186.644531 142.367188 186.714844 142.707031 C 186.78125 143.050781 186.816406 143.394531 186.816406 143.742188 C 186.816406 144.09375 186.78125 144.4375 186.714844 144.78125 C 186.644531 145.121094 186.546875 145.453125 186.410156 145.777344 C 186.277344 146.097656 186.113281 146.402344 185.917969 146.691406 C 185.722656 146.984375 185.503906 147.25 185.257812 147.496094 L 186.261719 148.503906 C 186.894531 147.875 187.382812 147.144531 187.726562 146.320312 C 188.066406 145.496094 188.238281 144.636719 188.234375 143.742188 C 188.238281 143.464844 188.21875 143.183594 188.1875 142.90625 L 188.226562 142.949219 C 188.90625 143.636719 189.726562 143.988281 190.691406 144.007812 L 191.398438 144.714844 C 191.792969 145.105469 192.265625 145.3125 192.816406 145.332031 C 192.839844 145.886719 193.042969 146.359375 193.433594 146.75 L 194.238281 147.496094 C 194.40625 147.667969 194.601562 147.808594 194.824219 147.90625 Z M 207.65625 152.539062 L 205.160156 150.050781 C 204.894531 149.777344 204.582031 149.566406 204.230469 149.414062 C 203.882812 149.265625 203.515625 149.1875 203.132812 149.179688 C 202.75 149.175781 202.382812 149.242188 202.027344 149.382812 C 201.671875 149.523438 201.355469 149.726562 201.082031 149.992188 C 200.53125 150.539062 200.257812 151.199219 200.265625 151.972656 C 200.265625 152.792969 200.554688 153.488281 201.136719 154.0625 L 203.628906 156.546875 C 202.679688 156.679688 201.761719 156.566406 200.875 156.203125 C 199.984375 155.84375 199.25 155.285156 198.664062 154.527344 C 198.101562 153.804688 197.753906 152.988281 197.628906 152.082031 C 197.5 151.175781 197.609375 150.296875 197.953125 149.445312 C 198.066406 149.152344 198.007812 148.898438 197.78125 148.679688 L 196.945312 147.84375 L 197.257812 147.53125 L 198.960938 145.84375 L 199.796875 146.679688 C 200.019531 146.90625 200.277344 146.957031 200.570312 146.835938 C 200.785156 146.757812 201 146.691406 201.222656 146.640625 C 201.445312 146.589844 201.667969 146.554688 201.894531 146.53125 C 202.121094 146.507812 202.351562 146.5 202.578125 146.507812 C 202.804688 146.515625 203.03125 146.539062 203.257812 146.574219 C 203.480469 146.609375 203.703125 146.660156 203.921875 146.726562 C 204.136719 146.789062 204.351562 146.867188 204.558594 146.960938 C 204.769531 147.054688 204.96875 147.15625 205.164062 147.277344 C 205.359375 147.394531 205.542969 147.523438 205.722656 147.667969 C 205.898438 147.808594 206.066406 147.960938 206.226562 148.125 C 206.382812 148.289062 206.53125 148.464844 206.667969 148.644531 C 206.800781 148.828125 206.925781 149.019531 207.039062 149.21875 C 207.148438 149.417969 207.246094 149.621094 207.332031 149.832031 C 207.414062 150.042969 207.484375 150.261719 207.542969 150.480469 C 207.601562 150.703125 207.640625 150.925781 207.671875 151.152344 C 207.699219 151.375 207.710938 151.601562 207.710938 151.832031 C 207.710938 152.058594 207.695312 152.285156 207.664062 152.511719 Z M 207.65625 152.539062 " fill-opacity="1" fill-rule="nonzero"/></g><g clip-path="url(#8e3a422b95)"><path fill="#ea7600" d="M 222.074219 144.167969 C 222.089844 143.75 222.40625 143.257812 222.777344 143.070312 L 230.367188 139.269531 C 230.742188 139.082031 230.992188 138.589844 230.925781 138.179688 L 229.179688 130.113281 C 229.066406 129.710938 228.632812 129.359375 228.214844 129.332031 L 219.585938 128.773438 C 219.167969 128.746094 218.671875 128.421875 218.484375 128.046875 L 217.308594 125.890625 C 217.097656 125.527344 217.101562 124.9375 217.3125 124.578125 L 221.671875 117.230469 C 221.886719 116.871094 221.835938 116.320312 221.558594 116.003906 L 215.6875 110.015625 C 215.378906 109.734375 214.828125 109.671875 214.460938 109.875 L 206.953125 114.042969 C 206.585938 114.246094 205.996094 114.234375 205.636719 114.015625 L 203.605469 112.863281 C 203.238281 112.667969 202.925781 112.167969 202.910156 111.75 L 202.601562 103.140625 C 202.585938 102.722656 202.246094 102.28125 201.84375 102.160156 L 193.710938 100.214844 C 193.300781 100.140625 192.800781 100.378906 192.605469 100.75 L 188.566406 108.265625 C 188.367188 108.636719 188.035156 108.933594 187.820312 108.929688 L 187.628906 108.929688 C 186.457031 108.929688 184.914062 109.042969 184.914062 109.042969 C 184.5 109.078125 183.960938 108.820312 183.722656 108.476562 L 178.785156 101.371094 C 178.546875 101.027344 178.023438 100.835938 177.621094 100.949219 L 169.851562 103.570312 C 169.464844 103.726562 169.171875 104.195312 169.207031 104.609375 L 169.867188 113.058594 C 169.902344 113.476562 169.640625 114.003906 169.289062 114.230469 L 166.820312 115.9375 C 166.484375 116.1875 165.894531 116.261719 165.507812 116.101562 L 157.507812 112.789062 C 157.121094 112.628906 156.578125 112.753906 156.296875 113.0625 L 151.3125 119.246094 C 151.070312 119.585938 151.074219 120.132812 151.328125 120.46875 L 156.429688 127.183594 C 156.679688 127.519531 156.746094 128.101562 156.570312 128.480469 L 155.183594 131.800781 C 155.035156 132.191406 154.578125 132.574219 154.167969 132.648438 L 145.679688 134.179688 C 145.269531 134.253906 144.878906 134.652344 144.8125 135.066406 C 144.8125 135.066406 143.984375 140.285156 143.984375 143.398438 L 143.984375 143.414062 C 143.984375 143.433594 144.304688 143.566406 144.699219 143.710938 L 152.617188 146.601562 C 153.011719 146.746094 153.378906 147.199219 153.4375 147.613281 L 154.179688 151.664062 C 154.273438 152.070312 154.097656 152.636719 153.792969 152.921875 L 147.519531 158.761719 C 147.214844 159.046875 147.105469 159.589844 147.277344 159.972656 L 150.699219 166.605469 C 150.910156 166.964844 151.414062 167.1875 151.824219 167.09375 L 160.085938 165.238281 C 160.492188 165.144531 161.050781 165.328125 161.328125 165.640625 L 164.375 168.808594 C 164.675781 169.097656 164.839844 169.664062 164.734375 170.070312 L 162.632812 178.3125 C 162.53125 178.714844 162.734375 179.230469 163.085938 179.453125 L 169.535156 183.089844 C 169.910156 183.277344 170.457031 183.183594 170.75 182.886719 L 176.730469 176.824219 C 177.027344 176.527344 177.597656 176.371094 178 176.480469 L 182.253906 177.425781 C 182.664062 177.5 183.109375 177.882812 183.242188 178.28125 L 185.910156 186.292969 C 186.042969 186.691406 186.492188 187.023438 186.910156 187.039062 C 186.910156 187.039062 187.132812 187.042969 187.628906 187.042969 C 190.195312 187.042969 194.398438 186.492188 194.398438 186.492188 C 194.8125 186.441406 195.222656 186.0625 195.308594 185.652344 L 197.074219 177.253906 C 197.160156 176.847656 197.554688 176.402344 197.953125 176.269531 L 201.695312 174.851562 C 202.078125 174.6875 202.660156 174.769531 202.984375 175.03125 L 209.550781 180.320312 C 209.875 180.582031 210.421875 180.601562 210.769531 180.367188 L 216.933594 175.695312 C 217.25 175.425781 217.390625 174.886719 217.242188 174.496094 L 214.167969 166.425781 C 214.019531 166.035156 214.109375 165.445312 214.371094 165.117188 L 216.402344 162.34375 C 216.640625 162 217.171875 161.753906 217.585938 161.796875 L 225.984375 162.699219 C 226.402344 162.742188 226.875 162.464844 227.042969 162.082031 L 229.792969 154.558594 C 229.914062 154.160156 229.738281 153.628906 229.402344 153.382812 L 222.433594 148.238281 C 222.097656 147.988281 221.855469 147.445312 221.894531 147.03125 Z M 187.515625 168.996094 C 173.46875 168.996094 162.082031 157.609375 162.082031 143.5625 C 162.082031 129.515625 173.46875 118.125 187.515625 118.125 C 201.566406 118.125 212.953125 129.511719 212.953125 143.5625 C 212.953125 157.609375 201.566406 168.996094 187.515625 168.996094 Z M 187.515625 168.996094 " fill-opacity="1" fill-rule="nonzero"/></g><g fill="#231f20" fill-opacity="1"><g transform="translate(56.878437, 218.739331)"><g><path d="M 2.015625 0 L 2.015625 -22.40625 L 6.65625 -22.40625 L 6.65625 -13.40625 L 16.953125 -13.40625 L 16.953125 -22.40625 L 21.59375 -22.40625 L 21.59375 0 L 16.953125 0 L 16.953125 -9.15625 L 6.65625 -9.15625 L 6.65625 0 Z M 2.015625 0 "/></g></g></g><g fill="#231f20" fill-opacity="1"><g transform="translate(80.520625, 218.739331)"><g><path d="M 8.953125 0 L 8.953125 -8.578125 L -0.1875 -22.40625 L 5.15625 -22.40625 L 11.421875 -12.671875 L 17.734375 -22.40625 L 22.78125 -22.40625 L 13.59375 -8.546875 L 13.59375 0 Z M 8.953125 0 "/></g></g></g><g fill="#231f20" fill-opacity="1"><g transform="translate(103.107072, 218.739331)"><g><path d="M 2.015625 -22.40625 L 12.546875 -22.40625 C 14.785156 -22.40625 16.609375 -21.832031 18.015625 -20.6875 C 19.421875 -19.539062 20.125 -18.0625 20.125 -16.25 C 20.125 -15.269531 19.878906 -14.375 19.390625 -13.5625 C 18.898438 -12.757812 18.226562 -12.085938 17.375 -11.546875 C 18.4375 -11.035156 19.285156 -10.335938 19.921875 -9.453125 C 20.566406 -8.566406 20.890625 -7.582031 20.890625 -6.5 C 20.890625 -4.550781 20.171875 -2.976562 18.734375 -1.78125 C 17.296875 -0.59375 15.40625 0 13.0625 0 L 2.015625 0 Z M 12.25 -18.5625 L 6.65625 -18.5625 L 6.65625 -13.25 L 12.25 -13.25 C 13.238281 -13.25 14.03125 -13.488281 14.625 -13.96875 C 15.21875 -14.445312 15.515625 -15.09375 15.515625 -15.90625 C 15.515625 -16.71875 15.21875 -17.363281 14.625 -17.84375 C 14.03125 -18.320312 13.238281 -18.5625 12.25 -18.5625 Z M 12.703125 -3.84375 C 13.765625 -3.84375 14.613281 -4.101562 15.25 -4.625 C 15.894531 -5.144531 16.21875 -5.851562 16.21875 -6.75 C 16.21875 -7.601562 15.894531 -8.296875 15.25 -8.828125 C 14.613281 -9.359375 13.765625 -9.625 12.703125 -9.625 L 6.65625 -9.625 L 6.65625 -3.84375 Z M 12.703125 -3.84375 "/></g></g></g><g fill="#231f20" fill-opacity="1"><g transform="translate(125.213634, 218.739331)"><g><path d="M 2.015625 0 L 2.015625 -22.40625 L 12.953125 -22.40625 C 14.085938 -22.40625 15.128906 -22.234375 16.078125 -21.890625 C 17.023438 -21.546875 17.835938 -21.066406 18.515625 -20.453125 C 19.203125 -19.847656 19.738281 -19.117188 20.125 -18.265625 C 20.507812 -17.410156 20.703125 -16.472656 20.703125 -15.453125 C 20.703125 -14.046875 20.300781 -12.785156 19.5 -11.671875 C 18.695312 -10.566406 17.632812 -9.75 16.3125 -9.21875 L 21.28125 0 L 16.09375 0 L 11.71875 -8.578125 L 6.65625 -8.578125 L 6.65625 0 Z M 12.546875 -18.40625 L 6.65625 -18.40625 L 6.65625 -12.390625 L 12.546875 -12.390625 C 13.585938 -12.390625 14.421875 -12.664062 15.046875 -13.21875 C 15.679688 -13.769531 16 -14.492188 16 -15.390625 C 16 -16.285156 15.679688 -17.007812 15.046875 -17.5625 C 14.421875 -18.125 13.585938 -18.40625 12.546875 -18.40625 Z M 12.546875 -18.40625 "/></g></g></g><g fill="#231f20" fill-opacity="1"><g transform="translate(146.936293, 218.739331)"><g><path d="M 2.015625 0 L 2.015625 -22.40625 L 6.65625 -22.40625 L 6.65625 0 Z M 2.015625 0 "/></g></g></g><g fill="#231f20" fill-opacity="1"><g transform="translate(155.638151, 218.739331)"><g><path d="M 2.015625 0 L 2.015625 -22.40625 L 10.625 -22.40625 C 12.289062 -22.40625 13.847656 -22.113281 15.296875 -21.53125 C 16.742188 -20.957031 17.992188 -20.164062 19.046875 -19.15625 C 20.109375 -18.15625 20.941406 -16.960938 21.546875 -15.578125 C 22.160156 -14.191406 22.46875 -12.710938 22.46875 -11.140625 C 22.46875 -9.578125 22.160156 -8.113281 21.546875 -6.75 C 20.941406 -5.382812 20.109375 -4.207031 19.046875 -3.21875 C 17.992188 -2.226562 16.742188 -1.441406 15.296875 -0.859375 C 13.847656 -0.285156 12.289062 0 10.625 0 Z M 10.59375 -18.265625 L 6.65625 -18.265625 L 6.65625 -4.125 L 10.59375 -4.125 C 11.570312 -4.125 12.492188 -4.304688 13.359375 -4.671875 C 14.222656 -5.035156 14.972656 -5.53125 15.609375 -6.15625 C 16.253906 -6.789062 16.753906 -7.53125 17.109375 -8.375 C 17.472656 -9.226562 17.65625 -10.148438 17.65625 -11.140625 C 17.65625 -12.140625 17.472656 -13.078125 17.109375 -13.953125 C 16.753906 -14.828125 16.253906 -15.582031 15.609375 -16.21875 C 14.972656 -16.863281 14.222656 -17.363281 13.359375 -17.71875 C 12.492188 -18.082031 11.570312 -18.265625 10.59375 -18.265625 Z M 10.59375 -18.265625 "/></g></g></g><g fill="#231f20" fill-opacity="1"><g transform="translate(179.248352, 218.739331)"><g><path d="M 10.65625 0 L 5.796875 0 L 0.828125 -22.40625 L 5.59375 -22.40625 L 8.640625 -7.203125 L 13.03125 -22.40625 L 17.375 -22.40625 L 21.734375 -7.265625 L 24.765625 -22.40625 L 29.375 -22.40625 L 24.421875 0 L 19.546875 0 L 15.109375 -15.640625 Z M 10.65625 0 "/></g></g></g><g fill="#231f20" fill-opacity="1"><g transform="translate(209.44893, 218.739331)"><g><path d="M 2.015625 0 L 2.015625 -22.40625 L 19.234375 -22.40625 L 19.234375 -18.375 L 6.65625 -18.375 L 6.65625 -13.25 L 14.9375 -13.25 L 14.9375 -9.34375 L 6.65625 -9.34375 L 6.65625 -4.03125 L 19.359375 -4.03125 L 19.359375 0 Z M 2.015625 0 "/></g></g></g><g fill="#231f20" fill-opacity="1"><g transform="translate(230.083863, 218.739331)"><g><path d="M -0.125 0 L 9.09375 -22.40625 L 14.46875 -22.40625 L 23.546875 0 L 18.53125 0 L 16.25 -5.890625 L 7.015625 -5.890625 L 4.703125 0 Z M 8.453125 -9.59375 L 14.84375 -9.59375 L 11.6875 -17.859375 Z M 8.453125 -9.59375 "/></g></g></g><g fill="#231f20" fill-opacity="1"><g transform="translate(253.502113, 218.739331)"><g><path d="M 2.015625 0 L 2.015625 -22.40625 L 6.65625 -22.40625 L 6.65625 -4.09375 L 18.90625 -4.09375 L 18.90625 0 Z M 2.015625 0 "/></g></g></g><g fill="#231f20" fill-opacity="1"><g transform="translate(273.593176, 218.739331)"><g><path d="M 0.578125 -18.296875 L 0.578125 -22.40625 L 20.28125 -22.40625 L 20.28125 -18.296875 L 12.765625 -18.296875 L 12.765625 0 L 8.125 0 L 8.125 -18.296875 Z M 0.578125 -18.296875 "/></g></g></g><g fill="#231f20" fill-opacity="1"><g transform="translate(294.452046, 218.739331)"><g><path d="M 2.015625 0 L 2.015625 -22.40625 L 6.65625 -22.40625 L 6.65625 -13.40625 L 16.953125 -13.40625 L 16.953125 -22.40625 L 21.59375 -22.40625 L 21.59375 0 L 16.953125 0 L 16.953125 -9.15625 L 6.65625 -9.15625 L 6.65625 0 Z M 2.015625 0 "/></g></g></g><g fill="#ea7600" fill-opacity="1"><g transform="translate(149.789057, 232.028598)"><g><path d="M 4.015625 0 L 2.359375 0 L 2.359375 -6.46875 L 0.21875 -6.46875 L 0.21875 -7.859375 L 6.15625 -7.859375 L 6.15625 -6.46875 L 4.015625 -6.46875 Z M 4.015625 0 "/></g></g></g><g fill="#ea7600" fill-opacity="1"><g transform="translate(156.15465, 232.028598)"><g><path d="M 5.515625 0 L 0.984375 0 L 0.984375 -7.859375 L 5.515625 -7.859375 L 5.515625 -6.484375 L 2.65625 -6.484375 L 2.65625 -4.765625 L 5.3125 -4.765625 L 5.3125 -3.40625 L 2.65625 -3.40625 L 2.65625 -1.375 L 5.515625 -1.375 Z M 5.515625 0 "/></g></g></g><g fill="#ea7600" fill-opacity="1"><g transform="translate(162.310918, 232.028598)"><g><path d="M 4.328125 -6.578125 C 3.703125 -6.578125 3.21875 -6.34375 2.875 -5.875 C 2.53125 -5.40625 2.359375 -4.75 2.359375 -3.90625 C 2.359375 -2.15625 3.015625 -1.28125 4.328125 -1.28125 C 4.878906 -1.28125 5.546875 -1.414062 6.328125 -1.6875 L 6.328125 -0.296875 C 5.679688 -0.0234375 4.960938 0.109375 4.171875 0.109375 C 3.023438 0.109375 2.148438 -0.234375 1.546875 -0.921875 C 0.941406 -1.617188 0.640625 -2.617188 0.640625 -3.921875 C 0.640625 -4.734375 0.785156 -5.445312 1.078125 -6.0625 C 1.378906 -6.675781 1.804688 -7.144531 2.359375 -7.46875 C 2.921875 -7.800781 3.578125 -7.96875 4.328125 -7.96875 C 5.085938 -7.96875 5.851562 -7.78125 6.625 -7.40625 L 6.078125 -6.0625 C 5.785156 -6.195312 5.488281 -6.316406 5.1875 -6.421875 C 4.894531 -6.523438 4.609375 -6.578125 4.328125 -6.578125 Z M 4.328125 -6.578125 "/></g></g></g><g fill="#ea7600" fill-opacity="1"><g transform="translate(169.315217, 232.028598)"><g><path d="M 7.421875 0 L 5.765625 0 L 5.765625 -3.390625 L 2.65625 -3.390625 L 2.65625 0 L 0.984375 0 L 0.984375 -7.859375 L 2.65625 -7.859375 L 2.65625 -4.78125 L 5.765625 -4.78125 L 5.765625 -7.859375 L 7.421875 -7.859375 Z M 7.421875 0 "/></g></g></g><g fill="#ea7600" fill-opacity="1"><g transform="translate(177.725743, 232.028598)"><g><path d="M 7.953125 0 L 5.84375 0 L 2.421875 -5.9375 L 2.375 -5.9375 C 2.4375 -4.882812 2.46875 -4.140625 2.46875 -3.703125 L 2.46875 0 L 0.984375 0 L 0.984375 -7.859375 L 3.09375 -7.859375 L 6.5 -1.96875 L 6.53125 -1.96875 C 6.476562 -2.988281 6.453125 -3.710938 6.453125 -4.140625 L 6.453125 -7.859375 L 7.953125 -7.859375 Z M 7.953125 0 "/></g></g></g><g fill="#ea7600" fill-opacity="1"><g transform="translate(186.662262, 232.028598)"><g><path d="M 8.109375 -3.9375 C 8.109375 -2.632812 7.785156 -1.632812 7.140625 -0.9375 C 6.503906 -0.238281 5.582031 0.109375 4.375 0.109375 C 3.175781 0.109375 2.253906 -0.238281 1.609375 -0.9375 C 0.960938 -1.632812 0.640625 -2.640625 0.640625 -3.953125 C 0.640625 -5.253906 0.960938 -6.25 1.609375 -6.9375 C 2.253906 -7.625 3.179688 -7.96875 4.390625 -7.96875 C 5.597656 -7.96875 6.519531 -7.617188 7.15625 -6.921875 C 7.789062 -6.234375 8.109375 -5.238281 8.109375 -3.9375 Z M 2.390625 -3.9375 C 2.390625 -3.0625 2.554688 -2.398438 2.890625 -1.953125 C 3.222656 -1.515625 3.71875 -1.296875 4.375 -1.296875 C 5.707031 -1.296875 6.375 -2.175781 6.375 -3.9375 C 6.375 -5.707031 5.710938 -6.59375 4.390625 -6.59375 C 3.722656 -6.59375 3.222656 -6.367188 2.890625 -5.921875 C 2.554688 -5.472656 2.390625 -4.8125 2.390625 -3.9375 Z M 2.390625 -3.9375 "/></g></g></g><g fill="#ea7600" fill-opacity="1"><g transform="translate(195.410926, 232.028598)"><g><path d="M 0.984375 0 L 0.984375 -7.859375 L 2.65625 -7.859375 L 2.65625 -1.375 L 5.84375 -1.375 L 5.84375 0 Z M 0.984375 0 "/></g></g></g><g fill="#ea7600" fill-opacity="1"><g transform="translate(201.620868, 232.028598)"><g><path d="M 8.109375 -3.9375 C 8.109375 -2.632812 7.785156 -1.632812 7.140625 -0.9375 C 6.503906 -0.238281 5.582031 0.109375 4.375 0.109375 C 3.175781 0.109375 2.253906 -0.238281 1.609375 -0.9375 C 0.960938 -1.632812 0.640625 -2.640625 0.640625 -3.953125 C 0.640625 -5.253906 0.960938 -6.25 1.609375 -6.9375 C 2.253906 -7.625 3.179688 -7.96875 4.390625 -7.96875 C 5.597656 -7.96875 6.519531 -7.617188 7.15625 -6.921875 C 7.789062 -6.234375 8.109375 -5.238281 8.109375 -3.9375 Z M 2.390625 -3.9375 C 2.390625 -3.0625 2.554688 -2.398438 2.890625 -1.953125 C 3.222656 -1.515625 3.71875 -1.296875 4.375 -1.296875 C 5.707031 -1.296875 6.375 -2.175781 6.375 -3.9375 C 6.375 -5.707031 5.710938 -6.59375 4.390625 -6.59375 C 3.722656 -6.59375 3.222656 -6.367188 2.890625 -5.921875 C 2.554688 -5.472656 2.390625 -4.8125 2.390625 -3.9375 Z M 2.390625 -3.9375 "/></g></g></g><g fill="#ea7600" fill-opacity="1"><g transform="translate(210.369532, 232.028598)"><g><path d="M 3.96875 -4.40625 L 7.078125 -4.40625 L 7.078125 -0.34375 C 6.578125 -0.175781 6.101562 -0.0625 5.65625 0 C 5.207031 0.0703125 4.753906 0.109375 4.296875 0.109375 C 3.109375 0.109375 2.203125 -0.238281 1.578125 -0.9375 C 0.953125 -1.632812 0.640625 -2.632812 0.640625 -3.9375 C 0.640625 -5.207031 1 -6.195312 1.71875 -6.90625 C 2.445312 -7.613281 3.457031 -7.96875 4.75 -7.96875 C 5.550781 -7.96875 6.328125 -7.804688 7.078125 -7.484375 L 6.515625 -6.15625 C 5.941406 -6.4375 5.347656 -6.578125 4.734375 -6.578125 C 4.015625 -6.578125 3.4375 -6.332031 3 -5.84375 C 2.570312 -5.363281 2.359375 -4.71875 2.359375 -3.90625 C 2.359375 -3.050781 2.53125 -2.398438 2.875 -1.953125 C 3.226562 -1.503906 3.738281 -1.28125 4.40625 -1.28125 C 4.75 -1.28125 5.097656 -1.316406 5.453125 -1.390625 L 5.453125 -3.03125 L 3.96875 -3.03125 Z M 3.96875 -4.40625 "/></g></g></g><g fill="#ea7600" fill-opacity="1"><g transform="translate(218.329206, 232.028598)"><g><path d="M 3.4375 -4.625 L 5.078125 -7.859375 L 6.859375 -7.859375 L 4.265625 -3.0625 L 4.265625 0 L 2.609375 0 L 2.609375 -3 L 0 -7.859375 L 1.8125 -7.859375 Z M 3.4375 -4.625 "/></g></g></g><g fill="#000000" fill-opacity="1"><g transform="translate(52.057619, 244.978592)"><g><path d="M 0.6875 -6.609375 L 3.59375 -6.609375 L 3.59375 -5.734375 L 1.6875 -5.734375 L 1.6875 -3.90625 L 3.21875 -3.90625 L 3.21875 -3 L 1.6875 -3 L 1.6875 -0.890625 L 3.890625 -0.890625 L 3.890625 0 L 0.6875 0 Z M 0.6875 -6.609375 "/></g></g></g><g fill="#000000" fill-opacity="1"><g transform="translate(56.260644, 244.978592)"><g><path d="M 0.640625 -4.125 L 1.609375 -4.125 L 1.609375 -3.390625 C 1.742188 -3.671875 1.9375 -3.878906 2.1875 -4.015625 C 2.445312 -4.160156 2.738281 -4.234375 3.0625 -4.234375 C 3.800781 -4.234375 4.253906 -3.976562 4.421875 -3.46875 C 4.554688 -3.707031 4.753906 -3.894531 5.015625 -4.03125 C 5.285156 -4.164062 5.566406 -4.234375 5.859375 -4.234375 C 6.285156 -4.234375 6.609375 -4.148438 6.828125 -3.984375 C 7.054688 -3.828125 7.207031 -3.59375 7.28125 -3.28125 C 7.351562 -2.976562 7.390625 -2.570312 7.390625 -2.0625 L 7.390625 0 L 6.421875 0 L 6.421875 -2.078125 C 6.421875 -2.566406 6.367188 -2.914062 6.265625 -3.125 C 6.171875 -3.332031 5.984375 -3.4375 5.703125 -3.4375 C 5.316406 -3.4375 5.023438 -3.304688 4.828125 -3.046875 C 4.640625 -2.796875 4.546875 -2.460938 4.546875 -2.046875 L 4.546875 0 L 3.578125 0 L 3.578125 -2.21875 C 3.578125 -2.539062 3.5625 -2.78125 3.53125 -2.9375 C 3.507812 -3.09375 3.441406 -3.210938 3.328125 -3.296875 C 3.222656 -3.390625 3.050781 -3.4375 2.8125 -3.4375 C 2.601562 -3.4375 2.40625 -3.375 2.21875 -3.25 C 2.039062 -3.125 1.894531 -2.953125 1.78125 -2.734375 C 1.675781 -2.523438 1.625 -2.296875 1.625 -2.046875 L 1.625 0 L 0.640625 0 Z M 0.640625 -4.125 "/></g></g></g><g fill="#000000" fill-opacity="1"><g transform="translate(64.2617, 244.978592)"><g><path d="M 0.65625 -4.125 L 1.59375 -4.125 L 1.59375 -3.359375 C 1.925781 -3.941406 2.441406 -4.234375 3.140625 -4.234375 C 3.722656 -4.234375 4.191406 -4.046875 4.546875 -3.671875 C 4.910156 -3.304688 5.09375 -2.78125 5.09375 -2.09375 C 5.09375 -1.65625 5.003906 -1.269531 4.828125 -0.9375 C 4.648438 -0.613281 4.410156 -0.359375 4.109375 -0.171875 C 3.804688 0.00390625 3.46875 0.09375 3.09375 0.09375 C 2.75 0.09375 2.445312 0.03125 2.1875 -0.09375 C 1.9375 -0.21875 1.738281 -0.394531 1.59375 -0.625 L 1.609375 2.1875 L 0.65625 2.1875 Z M 2.875 -0.734375 C 3.257812 -0.734375 3.554688 -0.851562 3.765625 -1.09375 C 3.984375 -1.34375 4.09375 -1.664062 4.09375 -2.0625 C 4.09375 -2.46875 3.988281 -2.789062 3.78125 -3.03125 C 3.570312 -3.28125 3.269531 -3.40625 2.875 -3.40625 C 2.65625 -3.40625 2.453125 -3.351562 2.265625 -3.25 C 2.078125 -3.144531 1.925781 -2.992188 1.8125 -2.796875 C 1.695312 -2.597656 1.640625 -2.367188 1.640625 -2.109375 L 1.640625 -2.046875 C 1.640625 -1.796875 1.695312 -1.566406 1.8125 -1.359375 C 1.925781 -1.160156 2.070312 -1.003906 2.25 -0.890625 C 2.4375 -0.785156 2.644531 -0.734375 2.875 -0.734375 Z M 2.875 -0.734375 "/></g></g></g><g fill="#000000" fill-opacity="1"><g transform="translate(69.75174, 244.978592)"><g><path d="M 2.5625 0.09375 C 2.132812 0.09375 1.753906 0 1.421875 -0.1875 C 1.097656 -0.382812 0.84375 -0.644531 0.65625 -0.96875 C 0.476562 -1.300781 0.390625 -1.671875 0.390625 -2.078125 C 0.390625 -2.472656 0.476562 -2.832031 0.65625 -3.15625 C 0.832031 -3.488281 1.085938 -3.75 1.421875 -3.9375 C 1.753906 -4.132812 2.132812 -4.234375 2.5625 -4.234375 C 3 -4.234375 3.378906 -4.132812 3.703125 -3.9375 C 4.023438 -3.75 4.273438 -3.488281 4.453125 -3.15625 C 4.628906 -2.832031 4.71875 -2.472656 4.71875 -2.078125 C 4.71875 -1.671875 4.628906 -1.300781 4.453125 -0.96875 C 4.273438 -0.644531 4.019531 -0.382812 3.6875 -0.1875 C 3.363281 0 2.988281 0.09375 2.5625 0.09375 Z M 2.59375 -0.703125 C 2.9375 -0.703125 3.207031 -0.828125 3.40625 -1.078125 C 3.613281 -1.335938 3.71875 -1.664062 3.71875 -2.0625 C 3.71875 -2.445312 3.609375 -2.773438 3.390625 -3.046875 C 3.171875 -3.316406 2.882812 -3.453125 2.53125 -3.453125 C 2.195312 -3.453125 1.925781 -3.316406 1.71875 -3.046875 C 1.507812 -2.785156 1.40625 -2.457031 1.40625 -2.0625 C 1.40625 -1.675781 1.515625 -1.351562 1.734375 -1.09375 C 1.953125 -0.832031 2.238281 -0.703125 2.59375 -0.703125 Z M 2.59375 -0.703125 "/></g></g></g><g fill="#000000" fill-opacity="1"><g transform="translate(74.872776, 244.978592)"><g><path d="M 3.15625 -2.296875 L 1.9375 0 L 1.765625 0 L 0.03125 -4.125 L 1.078125 -4.125 L 1.96875 -1.734375 L 3.140625 -4.125 L 3.171875 -4.125 L 4.359375 -1.75 L 5.25 -4.125 L 6.28125 -4.125 L 4.546875 0 L 4.390625 0 Z M 3.15625 -2.296875 "/></g></g></g><g fill="#000000" fill-opacity="1"><g transform="translate(81.181823, 244.978592)"><g><path d="M 2.59375 0.09375 C 2.101562 0.09375 1.691406 -0.00390625 1.359375 -0.203125 C 1.023438 -0.398438 0.78125 -0.660156 0.625 -0.984375 C 0.46875 -1.304688 0.390625 -1.664062 0.390625 -2.0625 C 0.390625 -2.5 0.476562 -2.878906 0.65625 -3.203125 C 0.84375 -3.535156 1.097656 -3.789062 1.421875 -3.96875 C 1.753906 -4.144531 2.125 -4.234375 2.53125 -4.234375 C 3.164062 -4.234375 3.632812 -4.054688 3.9375 -3.703125 C 4.25 -3.359375 4.40625 -2.867188 4.40625 -2.234375 C 4.40625 -2.066406 4.398438 -1.898438 4.390625 -1.734375 L 1.40625 -1.734375 C 1.476562 -1.359375 1.609375 -1.085938 1.796875 -0.921875 C 1.992188 -0.765625 2.269531 -0.6875 2.625 -0.6875 C 2.90625 -0.6875 3.140625 -0.710938 3.328125 -0.765625 C 3.515625 -0.816406 3.6875 -0.882812 3.84375 -0.96875 L 4.140625 -0.265625 C 3.992188 -0.171875 3.789062 -0.0859375 3.53125 -0.015625 C 3.269531 0.0546875 2.957031 0.09375 2.59375 0.09375 Z M 3.46875 -2.40625 C 3.46875 -2.78125 3.382812 -3.039062 3.21875 -3.1875 C 3.050781 -3.34375 2.8125 -3.421875 2.5 -3.421875 C 1.875 -3.421875 1.507812 -3.082031 1.40625 -2.40625 Z M 3.46875 -2.40625 "/></g></g></g><g fill="#000000" fill-opacity="1"><g transform="translate(85.969859, 244.978592)"><g><path d="M 0.609375 -4.125 L 1.578125 -4.125 L 1.578125 -3.328125 C 1.679688 -3.597656 1.835938 -3.816406 2.046875 -3.984375 C 2.265625 -4.148438 2.515625 -4.234375 2.796875 -4.234375 C 2.984375 -4.234375 3.113281 -4.21875 3.1875 -4.1875 L 3.046875 -3.203125 C 2.992188 -3.242188 2.878906 -3.265625 2.703125 -3.265625 C 2.421875 -3.265625 2.160156 -3.171875 1.921875 -2.984375 C 1.691406 -2.804688 1.578125 -2.519531 1.578125 -2.125 L 1.578125 0 L 0.609375 0 Z M 0.609375 -4.125 "/></g></g></g><g fill="#000000" fill-opacity="1"><g transform="translate(89.200881, 244.978592)"><g><path d="M 0.71875 -4.125 L 1.71875 -4.125 L 1.71875 0 L 0.71875 0 Z M 1.203125 -4.90625 C 1.015625 -4.90625 0.859375 -4.96875 0.734375 -5.09375 C 0.609375 -5.21875 0.546875 -5.375 0.546875 -5.5625 C 0.546875 -5.726562 0.609375 -5.867188 0.734375 -5.984375 C 0.859375 -6.109375 1.015625 -6.171875 1.203125 -6.171875 C 1.378906 -6.171875 1.53125 -6.109375 1.65625 -5.984375 C 1.78125 -5.867188 1.84375 -5.726562 1.84375 -5.5625 C 1.84375 -5.375 1.78125 -5.21875 1.65625 -5.09375 C 1.539062 -4.96875 1.390625 -4.90625 1.203125 -4.90625 Z M 1.203125 -4.90625 "/></g></g></g><g fill="#000000" fill-opacity="1"><g transform="translate(91.630897, 244.978592)"><g><path d="M 0.640625 -4.125 L 1.59375 -4.125 L 1.609375 -3.375 C 1.710938 -3.625 1.890625 -3.828125 2.140625 -3.984375 C 2.390625 -4.148438 2.675781 -4.234375 3 -4.234375 C 3.425781 -4.234375 3.753906 -4.144531 3.984375 -3.96875 C 4.210938 -3.789062 4.363281 -3.539062 4.4375 -3.21875 C 4.519531 -2.90625 4.5625 -2.492188 4.5625 -1.984375 L 4.5625 0 L 3.59375 0 L 3.59375 -1.96875 C 3.59375 -2.488281 3.539062 -2.863281 3.4375 -3.09375 C 3.332031 -3.320312 3.125 -3.4375 2.8125 -3.4375 C 2.625 -3.4375 2.4375 -3.378906 2.25 -3.265625 C 2.070312 -3.160156 1.921875 -3 1.796875 -2.78125 C 1.671875 -2.570312 1.609375 -2.328125 1.609375 -2.046875 L 1.609375 0 L 0.640625 0 Z M 0.640625 -4.125 "/></g></g></g><g fill="#000000" fill-opacity="1"><g transform="translate(96.805937, 244.978592)"><g><path d="M 2.640625 2.15625 C 2.335938 2.15625 2.035156 2.113281 1.734375 2.03125 C 1.441406 1.945312 1.234375 1.867188 1.109375 1.796875 L 1.328125 0.90625 C 1.722656 1.15625 2.15625 1.28125 2.625 1.28125 C 2.976562 1.28125 3.273438 1.191406 3.515625 1.015625 C 3.765625 0.847656 3.894531 0.515625 3.90625 0.015625 L 3.90625 -0.734375 C 3.78125 -0.492188 3.578125 -0.296875 3.296875 -0.140625 C 3.015625 0.015625 2.703125 0.09375 2.359375 0.09375 C 1.992188 0.09375 1.660156 0.00390625 1.359375 -0.171875 C 1.066406 -0.347656 0.832031 -0.601562 0.65625 -0.9375 C 0.476562 -1.269531 0.390625 -1.65625 0.390625 -2.09375 C 0.390625 -2.507812 0.472656 -2.878906 0.640625 -3.203125 C 0.804688 -3.535156 1.039062 -3.789062 1.34375 -3.96875 C 1.65625 -4.144531 2.015625 -4.234375 2.421875 -4.234375 C 2.660156 -4.234375 2.882812 -4.191406 3.09375 -4.109375 C 3.300781 -4.023438 3.476562 -3.921875 3.625 -3.796875 C 3.78125 -3.679688 3.878906 -3.5625 3.921875 -3.4375 L 3.9375 -4.125 L 4.859375 -4.125 L 4.859375 -0.03125 C 4.859375 0.675781 4.675781 1.21875 4.3125 1.59375 C 3.957031 1.96875 3.398438 2.15625 2.640625 2.15625 Z M 2.625 -0.734375 C 2.96875 -0.734375 3.253906 -0.847656 3.484375 -1.078125 C 3.722656 -1.316406 3.84375 -1.628906 3.84375 -2.015625 L 3.84375 -2.078125 C 3.84375 -2.335938 3.785156 -2.566406 3.671875 -2.765625 C 3.566406 -2.972656 3.421875 -3.132812 3.234375 -3.25 C 3.054688 -3.363281 2.851562 -3.421875 2.625 -3.421875 C 2.238281 -3.421875 1.941406 -3.296875 1.734375 -3.046875 C 1.523438 -2.796875 1.421875 -2.472656 1.421875 -2.078125 C 1.421875 -1.671875 1.523438 -1.34375 1.734375 -1.09375 C 1.941406 -0.851562 2.238281 -0.734375 2.625 -0.734375 Z M 2.625 -0.734375 "/></g></g></g><g fill="#000000" fill-opacity="1"><g transform="translate(102.26898, 244.978592)"><g/></g></g><g fill="#000000" fill-opacity="1"><g transform="translate(104.473993, 244.978592)"><g><path d="M 0.71875 -4.125 L 1.71875 -4.125 L 1.71875 0 L 0.71875 0 Z M 1.203125 -4.90625 C 1.015625 -4.90625 0.859375 -4.96875 0.734375 -5.09375 C 0.609375 -5.21875 0.546875 -5.375 0.546875 -5.5625 C 0.546875 -5.726562 0.609375 -5.867188 0.734375 -5.984375 C 0.859375 -6.109375 1.015625 -6.171875 1.203125 -6.171875 C 1.378906 -6.171875 1.53125 -6.109375 1.65625 -5.984375 C 1.78125 -5.867188 1.84375 -5.726562 1.84375 -5.5625 C 1.84375 -5.375 1.78125 -5.21875 1.65625 -5.09375 C 1.539062 -4.96875 1.390625 -4.90625 1.203125 -4.90625 Z M 1.203125 -4.90625 "/></g></g></g><g fill="#000000" fill-opacity="1"><g transform="translate(106.904009, 244.978592)"><g><path d="M 0.640625 -4.125 L 1.59375 -4.125 L 1.609375 -3.375 C 1.710938 -3.625 1.890625 -3.828125 2.140625 -3.984375 C 2.390625 -4.148438 2.675781 -4.234375 3 -4.234375 C 3.425781 -4.234375 3.753906 -4.144531 3.984375 -3.96875 C 4.210938 -3.789062 4.363281 -3.539062 4.4375 -3.21875 C 4.519531 -2.90625 4.5625 -2.492188 4.5625 -1.984375 L 4.5625 0 L 3.59375 0 L 3.59375 -1.96875 C 3.59375 -2.488281 3.539062 -2.863281 3.4375 -3.09375 C 3.332031 -3.320312 3.125 -3.4375 2.8125 -3.4375 C 2.625 -3.4375 2.4375 -3.378906 2.25 -3.265625 C 2.070312 -3.160156 1.921875 -3 1.796875 -2.78125 C 1.671875 -2.570312 1.609375 -2.328125 1.609375 -2.046875 L 1.609375 0 L 0.640625 0 Z M 0.640625 -4.125 "/></g></g></g><g fill="#000000" fill-opacity="1"><g transform="translate(112.07905, 244.978592)"><g><path d="M 0.640625 -4.125 L 1.59375 -4.125 L 1.609375 -3.375 C 1.710938 -3.625 1.890625 -3.828125 2.140625 -3.984375 C 2.390625 -4.148438 2.675781 -4.234375 3 -4.234375 C 3.425781 -4.234375 3.753906 -4.144531 3.984375 -3.96875 C 4.210938 -3.789062 4.363281 -3.539062 4.4375 -3.21875 C 4.519531 -2.90625 4.5625 -2.492188 4.5625 -1.984375 L 4.5625 0 L 3.59375 0 L 3.59375 -1.96875 C 3.59375 -2.488281 3.539062 -2.863281 3.4375 -3.09375 C 3.332031 -3.320312 3.125 -3.4375 2.8125 -3.4375 C 2.625 -3.4375 2.4375 -3.378906 2.25 -3.265625 C 2.070312 -3.160156 1.921875 -3 1.796875 -2.78125 C 1.671875 -2.570312 1.609375 -2.328125 1.609375 -2.046875 L 1.609375 0 L 0.640625 0 Z M 0.640625 -4.125 "/></g></g></g><g fill="#000000" fill-opacity="1"><g transform="translate(117.25409, 244.978592)"><g><path d="M 2.5625 0.09375 C 2.132812 0.09375 1.753906 0 1.421875 -0.1875 C 1.097656 -0.382812 0.84375 -0.644531 0.65625 -0.96875 C 0.476562 -1.300781 0.390625 -1.671875 0.390625 -2.078125 C 0.390625 -2.472656 0.476562 -2.832031 0.65625 -3.15625 C 0.832031 -3.488281 1.085938 -3.75 1.421875 -3.9375 C 1.753906 -4.132812 2.132812 -4.234375 2.5625 -4.234375 C 3 -4.234375 3.378906 -4.132812 3.703125 -3.9375 C 4.023438 -3.75 4.273438 -3.488281 4.453125 -3.15625 C 4.628906 -2.832031 4.71875 -2.472656 4.71875 -2.078125 C 4.71875 -1.671875 4.628906 -1.300781 4.453125 -0.96875 C 4.273438 -0.644531 4.019531 -0.382812 3.6875 -0.1875 C 3.363281 0 2.988281 0.09375 2.5625 0.09375 Z M 2.59375 -0.703125 C 2.9375 -0.703125 3.207031 -0.828125 3.40625 -1.078125 C 3.613281 -1.335938 3.71875 -1.664062 3.71875 -2.0625 C 3.71875 -2.445312 3.609375 -2.773438 3.390625 -3.046875 C 3.171875 -3.316406 2.882812 -3.453125 2.53125 -3.453125 C 2.195312 -3.453125 1.925781 -3.316406 1.71875 -3.046875 C 1.507812 -2.785156 1.40625 -2.457031 1.40625 -2.0625 C 1.40625 -1.675781 1.515625 -1.351562 1.734375 -1.09375 C 1.953125 -0.832031 2.238281 -0.703125 2.59375 -0.703125 Z M 2.59375 -0.703125 "/></g></g></g><g fill="#000000" fill-opacity="1"><g transform="translate(122.375127, 244.978592)"><g><path d="M -0.015625 -4.125 L 1.09375 -4.125 L 1.984375 -2.265625 L 2.265625 -1.515625 L 2.5625 -2.265625 L 3.4375 -4.125 L 4.515625 -4.125 L 2.34375 0 L 2.15625 0 Z M -0.015625 -4.125 "/></g></g></g><g fill="#000000" fill-opacity="1"><g transform="translate(126.875161, 244.978592)"><g><path d="M 2.46875 0.09375 C 2.09375 0.09375 1.75 0.00390625 1.4375 -0.171875 C 1.125 -0.347656 0.867188 -0.597656 0.671875 -0.921875 C 0.484375 -1.253906 0.390625 -1.640625 0.390625 -2.078125 C 0.390625 -2.515625 0.472656 -2.894531 0.640625 -3.21875 C 0.804688 -3.539062 1.039062 -3.789062 1.34375 -3.96875 C 1.65625 -4.144531 2.019531 -4.234375 2.4375 -4.234375 C 2.675781 -4.234375 2.898438 -4.191406 3.109375 -4.109375 C 3.316406 -4.023438 3.492188 -3.921875 3.640625 -3.796875 C 3.785156 -3.679688 3.878906 -3.5625 3.921875 -3.4375 L 3.9375 -4.125 L 4.875 -4.125 L 4.875 0 L 3.953125 0 L 3.9375 -0.734375 C 3.832031 -0.515625 3.644531 -0.320312 3.375 -0.15625 C 3.101562 0.0078125 2.800781 0.09375 2.46875 0.09375 Z M 2.625 -0.71875 C 2.96875 -0.71875 3.253906 -0.835938 3.484375 -1.078125 C 3.722656 -1.316406 3.84375 -1.625 3.84375 -2 L 3.84375 -2.0625 C 3.84375 -2.320312 3.785156 -2.550781 3.671875 -2.75 C 3.566406 -2.957031 3.421875 -3.117188 3.234375 -3.234375 C 3.054688 -3.347656 2.851562 -3.40625 2.625 -3.40625 C 2.238281 -3.40625 1.941406 -3.28125 1.734375 -3.03125 C 1.523438 -2.78125 1.421875 -2.457031 1.421875 -2.0625 C 1.421875 -1.664062 1.523438 -1.34375 1.734375 -1.09375 C 1.941406 -0.84375 2.238281 -0.71875 2.625 -0.71875 Z M 2.625 -0.71875 "/></g></g></g><g fill="#000000" fill-opacity="1"><g transform="translate(132.410198, 244.978592)"><g><path d="M 1 -3.34375 L 0.265625 -3.34375 L 0.265625 -4.125 L 1 -4.125 L 1 -5.8125 L 1.984375 -6.03125 L 1.984375 -4.125 L 2.9375 -4.125 L 2.9375 -3.34375 L 1.984375 -3.34375 L 1.984375 0 L 1 0 Z M 1 -3.34375 "/></g></g></g><g fill="#000000" fill-opacity="1"><g transform="translate(135.497219, 244.978592)"><g><path d="M 0.71875 -4.125 L 1.71875 -4.125 L 1.71875 0 L 0.71875 0 Z M 1.203125 -4.90625 C 1.015625 -4.90625 0.859375 -4.96875 0.734375 -5.09375 C 0.609375 -5.21875 0.546875 -5.375 0.546875 -5.5625 C 0.546875 -5.726562 0.609375 -5.867188 0.734375 -5.984375 C 0.859375 -6.109375 1.015625 -6.171875 1.203125 -6.171875 C 1.378906 -6.171875 1.53125 -6.109375 1.65625 -5.984375 C 1.78125 -5.867188 1.84375 -5.726562 1.84375 -5.5625 C 1.84375 -5.375 1.78125 -5.21875 1.65625 -5.09375 C 1.539062 -4.96875 1.390625 -4.90625 1.203125 -4.90625 Z M 1.203125 -4.90625 "/></g></g></g><g fill="#000000" fill-opacity="1"><g transform="translate(137.927234, 244.978592)"><g><path d="M 2.5625 0.09375 C 2.132812 0.09375 1.753906 0 1.421875 -0.1875 C 1.097656 -0.382812 0.84375 -0.644531 0.65625 -0.96875 C 0.476562 -1.300781 0.390625 -1.671875 0.390625 -2.078125 C 0.390625 -2.472656 0.476562 -2.832031 0.65625 -3.15625 C 0.832031 -3.488281 1.085938 -3.75 1.421875 -3.9375 C 1.753906 -4.132812 2.132812 -4.234375 2.5625 -4.234375 C 3 -4.234375 3.378906 -4.132812 3.703125 -3.9375 C 4.023438 -3.75 4.273438 -3.488281 4.453125 -3.15625 C 4.628906 -2.832031 4.71875 -2.472656 4.71875 -2.078125 C 4.71875 -1.671875 4.628906 -1.300781 4.453125 -0.96875 C 4.273438 -0.644531 4.019531 -0.382812 3.6875 -0.1875 C 3.363281 0 2.988281 0.09375 2.5625 0.09375 Z M 2.59375 -0.703125 C 2.9375 -0.703125 3.207031 -0.828125 3.40625 -1.078125 C 3.613281 -1.335938 3.71875 -1.664062 3.71875 -2.0625 C 3.71875 -2.445312 3.609375 -2.773438 3.390625 -3.046875 C 3.171875 -3.316406 2.882812 -3.453125 2.53125 -3.453125 C 2.195312 -3.453125 1.925781 -3.316406 1.71875 -3.046875 C 1.507812 -2.785156 1.40625 -2.457031 1.40625 -2.0625 C 1.40625 -1.675781 1.515625 -1.351562 1.734375 -1.09375 C 1.953125 -0.832031 2.238281 -0.703125 2.59375 -0.703125 Z M 2.59375 -0.703125 "/></g></g></g><g fill="#000000" fill-opacity="1"><g transform="translate(143.048271, 244.978592)"><g><path d="M 0.640625 -4.125 L 1.59375 -4.125 L 1.609375 -3.375 C 1.710938 -3.625 1.890625 -3.828125 2.140625 -3.984375 C 2.390625 -4.148438 2.675781 -4.234375 3 -4.234375 C 3.425781 -4.234375 3.753906 -4.144531 3.984375 -3.96875 C 4.210938 -3.789062 4.363281 -3.539062 4.4375 -3.21875 C 4.519531 -2.90625 4.5625 -2.492188 4.5625 -1.984375 L 4.5625 0 L 3.59375 0 L 3.59375 -1.96875 C 3.59375 -2.488281 3.539062 -2.863281 3.4375 -3.09375 C 3.332031 -3.320312 3.125 -3.4375 2.8125 -3.4375 C 2.625 -3.4375 2.4375 -3.378906 2.25 -3.265625 C 2.070312 -3.160156 1.921875 -3 1.796875 -2.78125 C 1.671875 -2.570312 1.609375 -2.328125 1.609375 -2.046875 L 1.609375 0 L 0.640625 0 Z M 0.640625 -4.125 "/></g></g></g><g fill="#000000" fill-opacity="1"><g transform="translate(148.223311, 244.978592)"><g/></g></g><g fill="#000000" fill-opacity="1"><g transform="translate(150.428325, 244.978592)"><g><path d="M 1 -3.34375 L 0.265625 -3.34375 L 0.265625 -4.125 L 1 -4.125 L 1 -5.8125 L 1.984375 -6.03125 L 1.984375 -4.125 L 2.9375 -4.125 L 2.9375 -3.34375 L 1.984375 -3.34375 L 1.984375 0 L 1 0 Z M 1 -3.34375 "/></g></g></g><g fill="#000000" fill-opacity="1"><g transform="translate(153.515345, 244.978592)"><g><path d="M 2.5625 0.09375 C 2.132812 0.09375 1.753906 0 1.421875 -0.1875 C 1.097656 -0.382812 0.84375 -0.644531 0.65625 -0.96875 C 0.476562 -1.300781 0.390625 -1.671875 0.390625 -2.078125 C 0.390625 -2.472656 0.476562 -2.832031 0.65625 -3.15625 C 0.832031 -3.488281 1.085938 -3.75 1.421875 -3.9375 C 1.753906 -4.132812 2.132812 -4.234375 2.5625 -4.234375 C 3 -4.234375 3.378906 -4.132812 3.703125 -3.9375 C 4.023438 -3.75 4.273438 -3.488281 4.453125 -3.15625 C 4.628906 -2.832031 4.71875 -2.472656 4.71875 -2.078125 C 4.71875 -1.671875 4.628906 -1.300781 4.453125 -0.96875 C 4.273438 -0.644531 4.019531 -0.382812 3.6875 -0.1875 C 3.363281 0 2.988281 0.09375 2.5625 0.09375 Z M 2.59375 -0.703125 C 2.9375 -0.703125 3.207031 -0.828125 3.40625 -1.078125 C 3.613281 -1.335938 3.71875 -1.664062 3.71875 -2.0625 C 3.71875 -2.445312 3.609375 -2.773438 3.390625 -3.046875 C 3.171875 -3.316406 2.882812 -3.453125 2.53125 -3.453125 C 2.195312 -3.453125 1.925781 -3.316406 1.71875 -3.046875 C 1.507812 -2.785156 1.40625 -2.457031 1.40625 -2.0625 C 1.40625 -1.675781 1.515625 -1.351562 1.734375 -1.09375 C 1.953125 -0.832031 2.238281 -0.703125 2.59375 -0.703125 Z M 2.59375 -0.703125 "/></g></g></g><g fill="#000000" fill-opacity="1"><g transform="translate(158.636381, 244.978592)"><g/></g></g><g fill="#000000" fill-opacity="1"><g transform="translate(160.841395, 244.978592)"><g><path d="M 3.09375 0.09375 C 2.75 0.09375 2.441406 0.0078125 2.171875 -0.15625 C 1.910156 -0.320312 1.726562 -0.515625 1.625 -0.734375 L 1.609375 0 L 0.671875 0 L 0.671875 -6.609375 L 1.625 -6.609375 L 1.625 -4.0625 L 1.578125 -3.359375 C 1.679688 -3.597656 1.878906 -3.800781 2.171875 -3.96875 C 2.472656 -4.144531 2.800781 -4.234375 3.15625 -4.234375 C 3.5625 -4.234375 3.914062 -4.140625 4.21875 -3.953125 C 4.519531 -3.773438 4.75 -3.519531 4.90625 -3.1875 C 5.070312 -2.863281 5.15625 -2.488281 5.15625 -2.0625 C 5.15625 -1.625 5.0625 -1.242188 4.875 -0.921875 C 4.6875 -0.597656 4.429688 -0.347656 4.109375 -0.171875 C 3.796875 0.00390625 3.457031 0.09375 3.09375 0.09375 Z M 2.921875 -0.71875 C 3.316406 -0.71875 3.617188 -0.84375 3.828125 -1.09375 C 4.035156 -1.34375 4.140625 -1.664062 4.140625 -2.0625 C 4.140625 -2.457031 4.035156 -2.78125 3.828125 -3.03125 C 3.617188 -3.28125 3.316406 -3.40625 2.921875 -3.40625 C 2.578125 -3.40625 2.285156 -3.285156 2.046875 -3.046875 C 1.816406 -2.816406 1.703125 -2.507812 1.703125 -2.125 L 1.703125 -2.0625 C 1.703125 -1.800781 1.757812 -1.566406 1.875 -1.359375 C 1.988281 -1.160156 2.132812 -1.003906 2.3125 -0.890625 C 2.5 -0.773438 2.703125 -0.71875 2.921875 -0.71875 Z M 2.921875 -0.71875 "/></g></g></g><g fill="#000000" fill-opacity="1"><g transform="translate(166.394434, 244.978592)"><g><path d="M 2.0625 0.09375 C 1.5 0.09375 1.109375 -0.0703125 0.890625 -0.40625 C 0.679688 -0.75 0.578125 -1.21875 0.578125 -1.8125 L 0.578125 -4.125 L 1.546875 -4.125 L 1.546875 -2.0625 C 1.546875 -1.71875 1.566406 -1.453125 1.609375 -1.265625 C 1.648438 -1.078125 1.726562 -0.9375 1.84375 -0.84375 C 1.957031 -0.757812 2.128906 -0.71875 2.359375 -0.71875 C 2.535156 -0.71875 2.703125 -0.765625 2.859375 -0.859375 C 3.015625 -0.953125 3.140625 -1.082031 3.234375 -1.25 C 3.335938 -1.414062 3.390625 -1.597656 3.390625 -1.796875 L 3.390625 -4.125 L 4.34375 -4.125 L 4.34375 0 L 3.5625 0 L 3.453125 -0.609375 C 3.296875 -0.367188 3.101562 -0.191406 2.875 -0.078125 C 2.65625 0.0351562 2.382812 0.09375 2.0625 0.09375 Z M 2.0625 0.09375 "/></g></g></g><g fill="#000000" fill-opacity="1"><g transform="translate(171.398465, 244.978592)"><g><path d="M 0.71875 -4.125 L 1.71875 -4.125 L 1.71875 0 L 0.71875 0 Z M 1.203125 -4.90625 C 1.015625 -4.90625 0.859375 -4.96875 0.734375 -5.09375 C 0.609375 -5.21875 0.546875 -5.375 0.546875 -5.5625 C 0.546875 -5.726562 0.609375 -5.867188 0.734375 -5.984375 C 0.859375 -6.109375 1.015625 -6.171875 1.203125 -6.171875 C 1.378906 -6.171875 1.53125 -6.109375 1.65625 -5.984375 C 1.78125 -5.867188 1.84375 -5.726562 1.84375 -5.5625 C 1.84375 -5.375 1.78125 -5.21875 1.65625 -5.09375 C 1.539062 -4.96875 1.390625 -4.90625 1.203125 -4.90625 Z M 1.203125 -4.90625 "/></g></g></g><g fill="#000000" fill-opacity="1"><g transform="translate(173.828481, 244.978592)"><g><path d="M 0.71875 -6.609375 L 1.6875 -6.609375 L 1.6875 0 L 0.71875 0 Z M 0.71875 -6.609375 "/></g></g></g><g fill="#000000" fill-opacity="1"><g transform="translate(176.240495, 244.978592)"><g><path d="M 2.46875 0.09375 C 2.09375 0.09375 1.75 0.00390625 1.4375 -0.171875 C 1.125 -0.347656 0.867188 -0.597656 0.671875 -0.921875 C 0.484375 -1.253906 0.390625 -1.640625 0.390625 -2.078125 C 0.390625 -2.734375 0.570312 -3.253906 0.9375 -3.640625 C 1.3125 -4.035156 1.8125 -4.234375 2.4375 -4.234375 C 2.78125 -4.234375 3.09375 -4.144531 3.375 -3.96875 C 3.664062 -3.800781 3.863281 -3.597656 3.96875 -3.359375 L 3.921875 -4.0625 L 3.921875 -6.609375 L 4.875 -6.609375 L 4.875 0 L 3.953125 0 L 3.9375 -0.734375 C 3.832031 -0.515625 3.644531 -0.320312 3.375 -0.15625 C 3.101562 0.0078125 2.800781 0.09375 2.46875 0.09375 Z M 2.625 -0.734375 C 2.96875 -0.734375 3.253906 -0.847656 3.484375 -1.078125 C 3.722656 -1.316406 3.84375 -1.628906 3.84375 -2.015625 L 3.84375 -2.078125 C 3.84375 -2.335938 3.785156 -2.566406 3.671875 -2.765625 C 3.566406 -2.972656 3.421875 -3.132812 3.234375 -3.25 C 3.054688 -3.363281 2.851562 -3.421875 2.625 -3.421875 C 2.238281 -3.421875 1.941406 -3.296875 1.734375 -3.046875 C 1.523438 -2.796875 1.421875 -2.472656 1.421875 -2.078125 C 1.421875 -1.671875 1.523438 -1.34375 1.734375 -1.09375 C 1.941406 -0.851562 2.238281 -0.734375 2.625 -0.734375 Z M 2.625 -0.734375 "/></g></g></g><g fill="#000000" fill-opacity="1"><g transform="translate(181.766537, 244.978592)"><g/></g></g><g fill="#000000" fill-opacity="1"><g transform="translate(183.971551, 244.978592)"><g><path d="M 2.46875 0.09375 C 2.09375 0.09375 1.75 0.00390625 1.4375 -0.171875 C 1.125 -0.347656 0.867188 -0.597656 0.671875 -0.921875 C 0.484375 -1.253906 0.390625 -1.640625 0.390625 -2.078125 C 0.390625 -2.515625 0.472656 -2.894531 0.640625 -3.21875 C 0.804688 -3.539062 1.039062 -3.789062 1.34375 -3.96875 C 1.65625 -4.144531 2.019531 -4.234375 2.4375 -4.234375 C 2.675781 -4.234375 2.898438 -4.191406 3.109375 -4.109375 C 3.316406 -4.023438 3.492188 -3.921875 3.640625 -3.796875 C 3.785156 -3.679688 3.878906 -3.5625 3.921875 -3.4375 L 3.9375 -4.125 L 4.875 -4.125 L 4.875 0 L 3.953125 0 L 3.9375 -0.734375 C 3.832031 -0.515625 3.644531 -0.320312 3.375 -0.15625 C 3.101562 0.0078125 2.800781 0.09375 2.46875 0.09375 Z M 2.625 -0.71875 C 2.96875 -0.71875 3.253906 -0.835938 3.484375 -1.078125 C 3.722656 -1.316406 3.84375 -1.625 3.84375 -2 L 3.84375 -2.0625 C 3.84375 -2.320312 3.785156 -2.550781 3.671875 -2.75 C 3.566406 -2.957031 3.421875 -3.117188 3.234375 -3.234375 C 3.054688 -3.347656 2.851562 -3.40625 2.625 -3.40625 C 2.238281 -3.40625 1.941406 -3.28125 1.734375 -3.03125 C 1.523438 -2.78125 1.421875 -2.457031 1.421875 -2.0625 C 1.421875 -1.664062 1.523438 -1.34375 1.734375 -1.09375 C 1.941406 -0.84375 2.238281 -0.71875 2.625 -0.71875 Z M 2.625 -0.71875 "/></g></g></g><g fill="#000000" fill-opacity="1"><g transform="translate(189.506588, 244.978592)"><g/></g></g><g fill="#000000" fill-opacity="1"><g transform="translate(191.711601, 244.978592)"><g><path d="M 2.0625 0.09375 C 1.769531 0.09375 1.46875 0.0546875 1.15625 -0.015625 C 0.851562 -0.0976562 0.632812 -0.1875 0.5 -0.28125 L 0.828125 -1.046875 C 1.191406 -0.796875 1.601562 -0.671875 2.0625 -0.671875 C 2.519531 -0.671875 2.75 -0.804688 2.75 -1.078125 C 2.75 -1.203125 2.703125 -1.296875 2.609375 -1.359375 C 2.515625 -1.421875 2.34375 -1.5 2.09375 -1.59375 L 1.75 -1.71875 C 1.394531 -1.863281 1.109375 -2.035156 0.890625 -2.234375 C 0.679688 -2.429688 0.578125 -2.695312 0.578125 -3.03125 C 0.578125 -3.40625 0.722656 -3.695312 1.015625 -3.90625 C 1.316406 -4.125 1.71875 -4.234375 2.21875 -4.234375 C 2.46875 -4.234375 2.707031 -4.207031 2.9375 -4.15625 C 3.175781 -4.101562 3.359375 -4.035156 3.484375 -3.953125 L 3.140625 -3.171875 C 3.066406 -3.253906 2.941406 -3.320312 2.765625 -3.375 C 2.597656 -3.4375 2.410156 -3.46875 2.203125 -3.46875 C 1.773438 -3.46875 1.5625 -3.335938 1.5625 -3.078125 C 1.5625 -2.929688 1.617188 -2.820312 1.734375 -2.75 C 1.847656 -2.675781 2.03125 -2.59375 2.28125 -2.5 C 2.3125 -2.5 2.40625 -2.46875 2.5625 -2.40625 C 2.945312 -2.25 3.234375 -2.078125 3.421875 -1.890625 C 3.609375 -1.703125 3.703125 -1.457031 3.703125 -1.15625 C 3.703125 -0.75 3.546875 -0.4375 3.234375 -0.21875 C 2.921875 -0.0078125 2.53125 0.09375 2.0625 0.09375 Z M 2.0625 0.09375 "/></g></g></g><g fill="#000000" fill-opacity="1"><g transform="translate(195.779632, 244.978592)"><g><path d="M 0.640625 -4.125 L 1.609375 -4.125 L 1.609375 -3.390625 C 1.742188 -3.671875 1.9375 -3.878906 2.1875 -4.015625 C 2.445312 -4.160156 2.738281 -4.234375 3.0625 -4.234375 C 3.800781 -4.234375 4.253906 -3.976562 4.421875 -3.46875 C 4.554688 -3.707031 4.753906 -3.894531 5.015625 -4.03125 C 5.285156 -4.164062 5.566406 -4.234375 5.859375 -4.234375 C 6.285156 -4.234375 6.609375 -4.148438 6.828125 -3.984375 C 7.054688 -3.828125 7.207031 -3.59375 7.28125 -3.28125 C 7.351562 -2.976562 7.390625 -2.570312 7.390625 -2.0625 L 7.390625 0 L 6.421875 0 L 6.421875 -2.078125 C 6.421875 -2.566406 6.367188 -2.914062 6.265625 -3.125 C 6.171875 -3.332031 5.984375 -3.4375 5.703125 -3.4375 C 5.316406 -3.4375 5.023438 -3.304688 4.828125 -3.046875 C 4.640625 -2.796875 4.546875 -2.460938 4.546875 -2.046875 L 4.546875 0 L 3.578125 0 L 3.578125 -2.21875 C 3.578125 -2.539062 3.5625 -2.78125 3.53125 -2.9375 C 3.507812 -3.09375 3.441406 -3.210938 3.328125 -3.296875 C 3.222656 -3.390625 3.050781 -3.4375 2.8125 -3.4375 C 2.601562 -3.4375 2.40625 -3.375 2.21875 -3.25 C 2.039062 -3.125 1.894531 -2.953125 1.78125 -2.734375 C 1.675781 -2.523438 1.625 -2.296875 1.625 -2.046875 L 1.625 0 L 0.640625 0 Z M 0.640625 -4.125 "/></g></g></g><g fill="#000000" fill-opacity="1"><g transform="translate(203.780688, 244.978592)"><g><path d="M 2.46875 0.09375 C 2.09375 0.09375 1.75 0.00390625 1.4375 -0.171875 C 1.125 -0.347656 0.867188 -0.597656 0.671875 -0.921875 C 0.484375 -1.253906 0.390625 -1.640625 0.390625 -2.078125 C 0.390625 -2.515625 0.472656 -2.894531 0.640625 -3.21875 C 0.804688 -3.539062 1.039062 -3.789062 1.34375 -3.96875 C 1.65625 -4.144531 2.019531 -4.234375 2.4375 -4.234375 C 2.675781 -4.234375 2.898438 -4.191406 3.109375 -4.109375 C 3.316406 -4.023438 3.492188 -3.921875 3.640625 -3.796875 C 3.785156 -3.679688 3.878906 -3.5625 3.921875 -3.4375 L 3.9375 -4.125 L 4.875 -4.125 L 4.875 0 L 3.953125 0 L 3.9375 -0.734375 C 3.832031 -0.515625 3.644531 -0.320312 3.375 -0.15625 C 3.101562 0.0078125 2.800781 0.09375 2.46875 0.09375 Z M 2.625 -0.71875 C 2.96875 -0.71875 3.253906 -0.835938 3.484375 -1.078125 C 3.722656 -1.316406 3.84375 -1.625 3.84375 -2 L 3.84375 -2.0625 C 3.84375 -2.320312 3.785156 -2.550781 3.671875 -2.75 C 3.566406 -2.957031 3.421875 -3.117188 3.234375 -3.234375 C 3.054688 -3.347656 2.851562 -3.40625 2.625 -3.40625 C 2.238281 -3.40625 1.941406 -3.28125 1.734375 -3.03125 C 1.523438 -2.78125 1.421875 -2.457031 1.421875 -2.0625 C 1.421875 -1.664062 1.523438 -1.34375 1.734375 -1.09375 C 1.941406 -0.84375 2.238281 -0.71875 2.625 -0.71875 Z M 2.625 -0.71875 "/></g></g></g><g fill="#000000" fill-opacity="1"><g transform="translate(209.315726, 244.978592)"><g><path d="M 0.609375 -4.125 L 1.578125 -4.125 L 1.578125 -3.328125 C 1.679688 -3.597656 1.835938 -3.816406 2.046875 -3.984375 C 2.265625 -4.148438 2.515625 -4.234375 2.796875 -4.234375 C 2.984375 -4.234375 3.113281 -4.21875 3.1875 -4.1875 L 3.046875 -3.203125 C 2.992188 -3.242188 2.878906 -3.265625 2.703125 -3.265625 C 2.421875 -3.265625 2.160156 -3.171875 1.921875 -2.984375 C 1.691406 -2.804688 1.578125 -2.519531 1.578125 -2.125 L 1.578125 0 L 0.609375 0 Z M 0.609375 -4.125 "/></g></g></g><g fill="#000000" fill-opacity="1"><g transform="translate(212.546748, 244.978592)"><g><path d="M 1 -3.34375 L 0.265625 -3.34375 L 0.265625 -4.125 L 1 -4.125 L 1 -5.8125 L 1.984375 -6.03125 L 1.984375 -4.125 L 2.9375 -4.125 L 2.9375 -3.34375 L 1.984375 -3.34375 L 1.984375 0 L 1 0 Z M 1 -3.34375 "/></g></g></g><g fill="#000000" fill-opacity="1"><g transform="translate(215.633768, 244.978592)"><g><path d="M 2.59375 0.09375 C 2.101562 0.09375 1.691406 -0.00390625 1.359375 -0.203125 C 1.023438 -0.398438 0.78125 -0.660156 0.625 -0.984375 C 0.46875 -1.304688 0.390625 -1.664062 0.390625 -2.0625 C 0.390625 -2.5 0.476562 -2.878906 0.65625 -3.203125 C 0.84375 -3.535156 1.097656 -3.789062 1.421875 -3.96875 C 1.753906 -4.144531 2.125 -4.234375 2.53125 -4.234375 C 3.164062 -4.234375 3.632812 -4.054688 3.9375 -3.703125 C 4.25 -3.359375 4.40625 -2.867188 4.40625 -2.234375 C 4.40625 -2.066406 4.398438 -1.898438 4.390625 -1.734375 L 1.40625 -1.734375 C 1.476562 -1.359375 1.609375 -1.085938 1.796875 -0.921875 C 1.992188 -0.765625 2.269531 -0.6875 2.625 -0.6875 C 2.90625 -0.6875 3.140625 -0.710938 3.328125 -0.765625 C 3.515625 -0.816406 3.6875 -0.882812 3.84375 -0.96875 L 4.140625 -0.265625 C 3.992188 -0.171875 3.789062 -0.0859375 3.53125 -0.015625 C 3.269531 0.0546875 2.957031 0.09375 2.59375 0.09375 Z M 3.46875 -2.40625 C 3.46875 -2.78125 3.382812 -3.039062 3.21875 -3.1875 C 3.050781 -3.34375 2.8125 -3.421875 2.5 -3.421875 C 1.875 -3.421875 1.507812 -3.082031 1.40625 -2.40625 Z M 3.46875 -2.40625 "/></g></g></g><g fill="#000000" fill-opacity="1"><g transform="translate(220.421805, 244.978592)"><g><path d="M 0.609375 -4.125 L 1.578125 -4.125 L 1.578125 -3.328125 C 1.679688 -3.597656 1.835938 -3.816406 2.046875 -3.984375 C 2.265625 -4.148438 2.515625 -4.234375 2.796875 -4.234375 C 2.984375 -4.234375 3.113281 -4.21875 3.1875 -4.1875 L 3.046875 -3.203125 C 2.992188 -3.242188 2.878906 -3.265625 2.703125 -3.265625 C 2.421875 -3.265625 2.160156 -3.171875 1.921875 -2.984375 C 1.691406 -2.804688 1.578125 -2.519531 1.578125 -2.125 L 1.578125 0 L 0.609375 0 Z M 0.609375 -4.125 "/></g></g></g><g fill="#000000" fill-opacity="1"><g transform="translate(223.652826, 244.978592)"><g><path d="M 0.46875 1.5 C 0.707031 0.988281 0.890625 0.515625 1.015625 0.078125 C 0.734375 -0.015625 0.59375 -0.222656 0.59375 -0.546875 C 0.59375 -0.734375 0.65625 -0.890625 0.78125 -1.015625 C 0.90625 -1.140625 1.054688 -1.203125 1.234375 -1.203125 C 1.429688 -1.203125 1.585938 -1.128906 1.703125 -0.984375 C 1.816406 -0.847656 1.875 -0.644531 1.875 -0.375 C 1.875 -0.101562 1.789062 0.195312 1.625 0.53125 C 1.457031 0.875 1.265625 1.195312 1.046875 1.5 Z M 0.46875 1.5 "/></g></g></g><g fill="#000000" fill-opacity="1"><g transform="translate(226.145841, 244.978592)"><g/></g></g><g fill="#000000" fill-opacity="1"><g transform="translate(228.350855, 244.978592)"><g><path d="M 0.640625 -4.125 L 1.609375 -4.125 L 1.609375 -3.390625 C 1.742188 -3.671875 1.9375 -3.878906 2.1875 -4.015625 C 2.445312 -4.160156 2.738281 -4.234375 3.0625 -4.234375 C 3.800781 -4.234375 4.253906 -3.976562 4.421875 -3.46875 C 4.554688 -3.707031 4.753906 -3.894531 5.015625 -4.03125 C 5.285156 -4.164062 5.566406 -4.234375 5.859375 -4.234375 C 6.285156 -4.234375 6.609375 -4.148438 6.828125 -3.984375 C 7.054688 -3.828125 7.207031 -3.59375 7.28125 -3.28125 C 7.351562 -2.976562 7.390625 -2.570312 7.390625 -2.0625 L 7.390625 0 L 6.421875 0 L 6.421875 -2.078125 C 6.421875 -2.566406 6.367188 -2.914062 6.265625 -3.125 C 6.171875 -3.332031 5.984375 -3.4375 5.703125 -3.4375 C 5.316406 -3.4375 5.023438 -3.304688 4.828125 -3.046875 C 4.640625 -2.796875 4.546875 -2.460938 4.546875 -2.046875 L 4.546875 0 L 3.578125 0 L 3.578125 -2.21875 C 3.578125 -2.539062 3.5625 -2.78125 3.53125 -2.9375 C 3.507812 -3.09375 3.441406 -3.210938 3.328125 -3.296875 C 3.222656 -3.390625 3.050781 -3.4375 2.8125 -3.4375 C 2.601562 -3.4375 2.40625 -3.375 2.21875 -3.25 C 2.039062 -3.125 1.894531 -2.953125 1.78125 -2.734375 C 1.675781 -2.523438 1.625 -2.296875 1.625 -2.046875 L 1.625 0 L 0.640625 0 Z M 0.640625 -4.125 "/></g></g></g><g fill="#000000" fill-opacity="1"><g transform="translate(236.351911, 244.978592)"><g><path d="M 2.5625 0.09375 C 2.132812 0.09375 1.753906 0 1.421875 -0.1875 C 1.097656 -0.382812 0.84375 -0.644531 0.65625 -0.96875 C 0.476562 -1.300781 0.390625 -1.671875 0.390625 -2.078125 C 0.390625 -2.472656 0.476562 -2.832031 0.65625 -3.15625 C 0.832031 -3.488281 1.085938 -3.75 1.421875 -3.9375 C 1.753906 -4.132812 2.132812 -4.234375 2.5625 -4.234375 C 3 -4.234375 3.378906 -4.132812 3.703125 -3.9375 C 4.023438 -3.75 4.273438 -3.488281 4.453125 -3.15625 C 4.628906 -2.832031 4.71875 -2.472656 4.71875 -2.078125 C 4.71875 -1.671875 4.628906 -1.300781 4.453125 -0.96875 C 4.273438 -0.644531 4.019531 -0.382812 3.6875 -0.1875 C 3.363281 0 2.988281 0.09375 2.5625 0.09375 Z M 2.59375 -0.703125 C 2.9375 -0.703125 3.207031 -0.828125 3.40625 -1.078125 C 3.613281 -1.335938 3.71875 -1.664062 3.71875 -2.0625 C 3.71875 -2.445312 3.609375 -2.773438 3.390625 -3.046875 C 3.171875 -3.316406 2.882812 -3.453125 2.53125 -3.453125 C 2.195312 -3.453125 1.925781 -3.316406 1.71875 -3.046875 C 1.507812 -2.785156 1.40625 -2.457031 1.40625 -2.0625 C 1.40625 -1.675781 1.515625 -1.351562 1.734375 -1.09375 C 1.953125 -0.832031 2.238281 -0.703125 2.59375 -0.703125 Z M 2.59375 -0.703125 "/></g></g></g><g fill="#000000" fill-opacity="1"><g transform="translate(241.472947, 244.978592)"><g><path d="M 0.609375 -4.125 L 1.578125 -4.125 L 1.578125 -3.328125 C 1.679688 -3.597656 1.835938 -3.816406 2.046875 -3.984375 C 2.265625 -4.148438 2.515625 -4.234375 2.796875 -4.234375 C 2.984375 -4.234375 3.113281 -4.21875 3.1875 -4.1875 L 3.046875 -3.203125 C 2.992188 -3.242188 2.878906 -3.265625 2.703125 -3.265625 C 2.421875 -3.265625 2.160156 -3.171875 1.921875 -2.984375 C 1.691406 -2.804688 1.578125 -2.519531 1.578125 -2.125 L 1.578125 0 L 0.609375 0 Z M 0.609375 -4.125 "/></g></g></g><g fill="#000000" fill-opacity="1"><g transform="translate(244.703969, 244.978592)"><g><path d="M 2.59375 0.09375 C 2.101562 0.09375 1.691406 -0.00390625 1.359375 -0.203125 C 1.023438 -0.398438 0.78125 -0.660156 0.625 -0.984375 C 0.46875 -1.304688 0.390625 -1.664062 0.390625 -2.0625 C 0.390625 -2.5 0.476562 -2.878906 0.65625 -3.203125 C 0.84375 -3.535156 1.097656 -3.789062 1.421875 -3.96875 C 1.753906 -4.144531 2.125 -4.234375 2.53125 -4.234375 C 3.164062 -4.234375 3.632812 -4.054688 3.9375 -3.703125 C 4.25 -3.359375 4.40625 -2.867188 4.40625 -2.234375 C 4.40625 -2.066406 4.398438 -1.898438 4.390625 -1.734375 L 1.40625 -1.734375 C 1.476562 -1.359375 1.609375 -1.085938 1.796875 -0.921875 C 1.992188 -0.765625 2.269531 -0.6875 2.625 -0.6875 C 2.90625 -0.6875 3.140625 -0.710938 3.328125 -0.765625 C 3.515625 -0.816406 3.6875 -0.882812 3.84375 -0.96875 L 4.140625 -0.265625 C 3.992188 -0.171875 3.789062 -0.0859375 3.53125 -0.015625 C 3.269531 0.0546875 2.957031 0.09375 2.59375 0.09375 Z M 3.46875 -2.40625 C 3.46875 -2.78125 3.382812 -3.039062 3.21875 -3.1875 C 3.050781 -3.34375 2.8125 -3.421875 2.5 -3.421875 C 1.875 -3.421875 1.507812 -3.082031 1.40625 -2.40625 Z M 3.46875 -2.40625 "/></g></g></g><g fill="#000000" fill-opacity="1"><g transform="translate(249.491993, 244.978592)"><g/></g></g><g fill="#000000" fill-opacity="1"><g transform="translate(251.696995, 244.978592)"><g><path d="M 2.5625 0.09375 C 2.15625 0.09375 1.785156 0.00390625 1.453125 -0.171875 C 1.128906 -0.347656 0.867188 -0.601562 0.671875 -0.9375 C 0.484375 -1.269531 0.390625 -1.660156 0.390625 -2.109375 C 0.390625 -2.535156 0.476562 -2.910156 0.65625 -3.234375 C 0.832031 -3.554688 1.082031 -3.800781 1.40625 -3.96875 C 1.726562 -4.144531 2.097656 -4.234375 2.515625 -4.234375 C 2.835938 -4.234375 3.113281 -4.191406 3.34375 -4.109375 C 3.570312 -4.035156 3.753906 -3.9375 3.890625 -3.8125 L 3.453125 -3.03125 C 3.203125 -3.28125 2.914062 -3.40625 2.59375 -3.40625 C 2.21875 -3.40625 1.925781 -3.285156 1.71875 -3.046875 C 1.519531 -2.816406 1.421875 -2.507812 1.421875 -2.125 C 1.421875 -1.675781 1.523438 -1.328125 1.734375 -1.078125 C 1.941406 -0.835938 2.226562 -0.71875 2.59375 -0.71875 C 2.78125 -0.71875 2.960938 -0.742188 3.140625 -0.796875 C 3.316406 -0.847656 3.457031 -0.910156 3.5625 -0.984375 L 3.90625 -0.3125 C 3.769531 -0.207031 3.582031 -0.113281 3.34375 -0.03125 C 3.113281 0.0507812 2.851562 0.09375 2.5625 0.09375 Z M 2.5625 0.09375 "/></g></g></g><g fill="#000000" fill-opacity="1"><g transform="translate(255.891025, 244.978592)"><g><path d="M 2.5625 0.09375 C 2.132812 0.09375 1.753906 0 1.421875 -0.1875 C 1.097656 -0.382812 0.84375 -0.644531 0.65625 -0.96875 C 0.476562 -1.300781 0.390625 -1.671875 0.390625 -2.078125 C 0.390625 -2.472656 0.476562 -2.832031 0.65625 -3.15625 C 0.832031 -3.488281 1.085938 -3.75 1.421875 -3.9375 C 1.753906 -4.132812 2.132812 -4.234375 2.5625 -4.234375 C 3 -4.234375 3.378906 -4.132812 3.703125 -3.9375 C 4.023438 -3.75 4.273438 -3.488281 4.453125 -3.15625 C 4.628906 -2.832031 4.71875 -2.472656 4.71875 -2.078125 C 4.71875 -1.671875 4.628906 -1.300781 4.453125 -0.96875 C 4.273438 -0.644531 4.019531 -0.382812 3.6875 -0.1875 C 3.363281 0 2.988281 0.09375 2.5625 0.09375 Z M 2.59375 -0.703125 C 2.9375 -0.703125 3.207031 -0.828125 3.40625 -1.078125 C 3.613281 -1.335938 3.71875 -1.664062 3.71875 -2.0625 C 3.71875 -2.445312 3.609375 -2.773438 3.390625 -3.046875 C 3.171875 -3.316406 2.882812 -3.453125 2.53125 -3.453125 C 2.195312 -3.453125 1.925781 -3.316406 1.71875 -3.046875 C 1.507812 -2.785156 1.40625 -2.457031 1.40625 -2.0625 C 1.40625 -1.675781 1.515625 -1.351562 1.734375 -1.09375 C 1.953125 -0.832031 2.238281 -0.703125 2.59375 -0.703125 Z M 2.59375 -0.703125 "/></g></g></g><g fill="#000000" fill-opacity="1"><g transform="translate(261.012073, 244.978592)"><g><path d="M 0.640625 -4.125 L 1.59375 -4.125 L 1.609375 -3.375 C 1.710938 -3.625 1.890625 -3.828125 2.140625 -3.984375 C 2.390625 -4.148438 2.675781 -4.234375 3 -4.234375 C 3.425781 -4.234375 3.753906 -4.144531 3.984375 -3.96875 C 4.210938 -3.789062 4.363281 -3.539062 4.4375 -3.21875 C 4.519531 -2.90625 4.5625 -2.492188 4.5625 -1.984375 L 4.5625 0 L 3.59375 0 L 3.59375 -1.96875 C 3.59375 -2.488281 3.539062 -2.863281 3.4375 -3.09375 C 3.332031 -3.320312 3.125 -3.4375 2.8125 -3.4375 C 2.625 -3.4375 2.4375 -3.378906 2.25 -3.265625 C 2.070312 -3.160156 1.921875 -3 1.796875 -2.78125 C 1.671875 -2.570312 1.609375 -2.328125 1.609375 -2.046875 L 1.609375 0 L 0.640625 0 Z M 0.640625 -4.125 "/></g></g></g><g fill="#000000" fill-opacity="1"><g transform="translate(266.187114, 244.978592)"><g><path d="M 0.640625 -4.125 L 1.59375 -4.125 L 1.609375 -3.375 C 1.710938 -3.625 1.890625 -3.828125 2.140625 -3.984375 C 2.390625 -4.148438 2.675781 -4.234375 3 -4.234375 C 3.425781 -4.234375 3.753906 -4.144531 3.984375 -3.96875 C 4.210938 -3.789062 4.363281 -3.539062 4.4375 -3.21875 C 4.519531 -2.90625 4.5625 -2.492188 4.5625 -1.984375 L 4.5625 0 L 3.59375 0 L 3.59375 -1.96875 C 3.59375 -2.488281 3.539062 -2.863281 3.4375 -3.09375 C 3.332031 -3.320312 3.125 -3.4375 2.8125 -3.4375 C 2.625 -3.4375 2.4375 -3.378906 2.25 -3.265625 C 2.070312 -3.160156 1.921875 -3 1.796875 -2.78125 C 1.671875 -2.570312 1.609375 -2.328125 1.609375 -2.046875 L 1.609375 0 L 0.640625 0 Z M 0.640625 -4.125 "/></g></g></g><g fill="#000000" fill-opacity="1"><g transform="translate(271.362155, 244.978592)"><g><path d="M 2.59375 0.09375 C 2.101562 0.09375 1.691406 -0.00390625 1.359375 -0.203125 C 1.023438 -0.398438 0.78125 -0.660156 0.625 -0.984375 C 0.46875 -1.304688 0.390625 -1.664062 0.390625 -2.0625 C 0.390625 -2.5 0.476562 -2.878906 0.65625 -3.203125 C 0.84375 -3.535156 1.097656 -3.789062 1.421875 -3.96875 C 1.753906 -4.144531 2.125 -4.234375 2.53125 -4.234375 C 3.164062 -4.234375 3.632812 -4.054688 3.9375 -3.703125 C 4.25 -3.359375 4.40625 -2.867188 4.40625 -2.234375 C 4.40625 -2.066406 4.398438 -1.898438 4.390625 -1.734375 L 1.40625 -1.734375 C 1.476562 -1.359375 1.609375 -1.085938 1.796875 -0.921875 C 1.992188 -0.765625 2.269531 -0.6875 2.625 -0.6875 C 2.90625 -0.6875 3.140625 -0.710938 3.328125 -0.765625 C 3.515625 -0.816406 3.6875 -0.882812 3.84375 -0.96875 L 4.140625 -0.265625 C 3.992188 -0.171875 3.789062 -0.0859375 3.53125 -0.015625 C 3.269531 0.0546875 2.957031 0.09375 2.59375 0.09375 Z M 3.46875 -2.40625 C 3.46875 -2.78125 3.382812 -3.039062 3.21875 -3.1875 C 3.050781 -3.34375 2.8125 -3.421875 2.5 -3.421875 C 1.875 -3.421875 1.507812 -3.082031 1.40625 -2.40625 Z M 3.46875 -2.40625 "/></g></g></g><g fill="#000000" fill-opacity="1"><g transform="translate(276.150179, 244.978592)"><g><path d="M 2.5625 0.09375 C 2.15625 0.09375 1.785156 0.00390625 1.453125 -0.171875 C 1.128906 -0.347656 0.867188 -0.601562 0.671875 -0.9375 C 0.484375 -1.269531 0.390625 -1.660156 0.390625 -2.109375 C 0.390625 -2.535156 0.476562 -2.910156 0.65625 -3.234375 C 0.832031 -3.554688 1.082031 -3.800781 1.40625 -3.96875 C 1.726562 -4.144531 2.097656 -4.234375 2.515625 -4.234375 C 2.835938 -4.234375 3.113281 -4.191406 3.34375 -4.109375 C 3.570312 -4.035156 3.753906 -3.9375 3.890625 -3.8125 L 3.453125 -3.03125 C 3.203125 -3.28125 2.914062 -3.40625 2.59375 -3.40625 C 2.21875 -3.40625 1.925781 -3.285156 1.71875 -3.046875 C 1.519531 -2.816406 1.421875 -2.507812 1.421875 -2.125 C 1.421875 -1.675781 1.523438 -1.328125 1.734375 -1.078125 C 1.941406 -0.835938 2.226562 -0.71875 2.59375 -0.71875 C 2.78125 -0.71875 2.960938 -0.742188 3.140625 -0.796875 C 3.316406 -0.847656 3.457031 -0.910156 3.5625 -0.984375 L 3.90625 -0.3125 C 3.769531 -0.207031 3.582031 -0.113281 3.34375 -0.03125 C 3.113281 0.0507812 2.851562 0.09375 2.5625 0.09375 Z M 2.5625 0.09375 "/></g></g></g><g fill="#000000" fill-opacity="1"><g transform="translate(280.34421, 244.978592)"><g><path d="M 1 -3.34375 L 0.265625 -3.34375 L 0.265625 -4.125 L 1 -4.125 L 1 -5.8125 L 1.984375 -6.03125 L 1.984375 -4.125 L 2.9375 -4.125 L 2.9375 -3.34375 L 1.984375 -3.34375 L 1.984375 0 L 1 0 Z M 1 -3.34375 "/></g></g></g><g fill="#000000" fill-opacity="1"><g transform="translate(283.43123, 244.978592)"><g><path d="M 2.59375 0.09375 C 2.101562 0.09375 1.691406 -0.00390625 1.359375 -0.203125 C 1.023438 -0.398438 0.78125 -0.660156 0.625 -0.984375 C 0.46875 -1.304688 0.390625 -1.664062 0.390625 -2.0625 C 0.390625 -2.5 0.476562 -2.878906 0.65625 -3.203125 C 0.84375 -3.535156 1.097656 -3.789062 1.421875 -3.96875 C 1.753906 -4.144531 2.125 -4.234375 2.53125 -4.234375 C 3.164062 -4.234375 3.632812 -4.054688 3.9375 -3.703125 C 4.25 -3.359375 4.40625 -2.867188 4.40625 -2.234375 C 4.40625 -2.066406 4.398438 -1.898438 4.390625 -1.734375 L 1.40625 -1.734375 C 1.476562 -1.359375 1.609375 -1.085938 1.796875 -0.921875 C 1.992188 -0.765625 2.269531 -0.6875 2.625 -0.6875 C 2.90625 -0.6875 3.140625 -0.710938 3.328125 -0.765625 C 3.515625 -0.816406 3.6875 -0.882812 3.84375 -0.96875 L 4.140625 -0.265625 C 3.992188 -0.171875 3.789062 -0.0859375 3.53125 -0.015625 C 3.269531 0.0546875 2.957031 0.09375 2.59375 0.09375 Z M 3.46875 -2.40625 C 3.46875 -2.78125 3.382812 -3.039062 3.21875 -3.1875 C 3.050781 -3.34375 2.8125 -3.421875 2.5 -3.421875 C 1.875 -3.421875 1.507812 -3.082031 1.40625 -2.40625 Z M 3.46875 -2.40625 "/></g></g></g><g fill="#000000" fill-opacity="1"><g transform="translate(288.219255, 244.978592)"><g><path d="M 2.46875 0.09375 C 2.09375 0.09375 1.75 0.00390625 1.4375 -0.171875 C 1.125 -0.347656 0.867188 -0.597656 0.671875 -0.921875 C 0.484375 -1.253906 0.390625 -1.640625 0.390625 -2.078125 C 0.390625 -2.734375 0.570312 -3.253906 0.9375 -3.640625 C 1.3125 -4.035156 1.8125 -4.234375 2.4375 -4.234375 C 2.78125 -4.234375 3.09375 -4.144531 3.375 -3.96875 C 3.664062 -3.800781 3.863281 -3.597656 3.96875 -3.359375 L 3.921875 -4.0625 L 3.921875 -6.609375 L 4.875 -6.609375 L 4.875 0 L 3.953125 0 L 3.9375 -0.734375 C 3.832031 -0.515625 3.644531 -0.320312 3.375 -0.15625 C 3.101562 0.0078125 2.800781 0.09375 2.46875 0.09375 Z M 2.625 -0.734375 C 2.96875 -0.734375 3.253906 -0.847656 3.484375 -1.078125 C 3.722656 -1.316406 3.84375 -1.628906 3.84375 -2.015625 L 3.84375 -2.078125 C 3.84375 -2.335938 3.785156 -2.566406 3.671875 -2.765625 C 3.566406 -2.972656 3.421875 -3.132812 3.234375 -3.25 C 3.054688 -3.363281 2.851562 -3.421875 2.625 -3.421875 C 2.238281 -3.421875 1.941406 -3.296875 1.734375 -3.046875 C 1.523438 -2.796875 1.421875 -2.472656 1.421875 -2.078125 C 1.421875 -1.671875 1.523438 -1.34375 1.734375 -1.09375 C 1.941406 -0.851562 2.238281 -0.734375 2.625 -0.734375 Z M 2.625 -0.734375 "/></g></g></g><g fill="#000000" fill-opacity="1"><g transform="translate(293.745286, 244.978592)"><g/></g></g><g fill="#000000" fill-opacity="1"><g transform="translate(295.950288, 244.978592)"><g><path d="M 1.03125 -3.359375 L 0.359375 -3.359375 L 0.359375 -4.125 L 1.03125 -4.125 L 1.03125 -5.015625 C 1.03125 -5.554688 1.160156 -5.972656 1.421875 -6.265625 C 1.679688 -6.566406 2.0625 -6.71875 2.5625 -6.71875 C 2.769531 -6.71875 3.003906 -6.660156 3.265625 -6.546875 L 3.0625 -5.640625 C 3.019531 -5.679688 2.957031 -5.722656 2.875 -5.765625 C 2.789062 -5.816406 2.695312 -5.84375 2.59375 -5.84375 C 2.1875 -5.84375 1.984375 -5.582031 1.984375 -5.0625 L 1.984375 -4.125 L 2.953125 -4.125 L 2.953125 -3.359375 L 1.984375 -3.359375 L 1.984375 0 L 1.03125 0 Z M 1.03125 -3.359375 "/></g></g></g><g fill="#000000" fill-opacity="1"><g transform="translate(299.208306, 244.978592)"><g><path d="M 2.0625 0.09375 C 1.5 0.09375 1.109375 -0.0703125 0.890625 -0.40625 C 0.679688 -0.75 0.578125 -1.21875 0.578125 -1.8125 L 0.578125 -4.125 L 1.546875 -4.125 L 1.546875 -2.0625 C 1.546875 -1.71875 1.566406 -1.453125 1.609375 -1.265625 C 1.648438 -1.078125 1.726562 -0.9375 1.84375 -0.84375 C 1.957031 -0.757812 2.128906 -0.71875 2.359375 -0.71875 C 2.535156 -0.71875 2.703125 -0.765625 2.859375 -0.859375 C 3.015625 -0.953125 3.140625 -1.082031 3.234375 -1.25 C 3.335938 -1.414062 3.390625 -1.597656 3.390625 -1.796875 L 3.390625 -4.125 L 4.34375 -4.125 L 4.34375 0 L 3.5625 0 L 3.453125 -0.609375 C 3.296875 -0.367188 3.101562 -0.191406 2.875 -0.078125 C 2.65625 0.0351562 2.382812 0.09375 2.0625 0.09375 Z M 2.0625 0.09375 "/></g></g></g><g fill="#000000" fill-opacity="1"><g transform="translate(304.212326, 244.978592)"><g><path d="M 1 -3.34375 L 0.265625 -3.34375 L 0.265625 -4.125 L 1 -4.125 L 1 -5.8125 L 1.984375 -6.03125 L 1.984375 -4.125 L 2.9375 -4.125 L 2.9375 -3.34375 L 1.984375 -3.34375 L 1.984375 0 L 1 0 Z M 1 -3.34375 "/></g></g></g><g fill="#000000" fill-opacity="1"><g transform="translate(307.299347, 244.978592)"><g><path d="M 2.0625 0.09375 C 1.5 0.09375 1.109375 -0.0703125 0.890625 -0.40625 C 0.679688 -0.75 0.578125 -1.21875 0.578125 -1.8125 L 0.578125 -4.125 L 1.546875 -4.125 L 1.546875 -2.0625 C 1.546875 -1.71875 1.566406 -1.453125 1.609375 -1.265625 C 1.648438 -1.078125 1.726562 -0.9375 1.84375 -0.84375 C 1.957031 -0.757812 2.128906 -0.71875 2.359375 -0.71875 C 2.535156 -0.71875 2.703125 -0.765625 2.859375 -0.859375 C 3.015625 -0.953125 3.140625 -1.082031 3.234375 -1.25 C 3.335938 -1.414062 3.390625 -1.597656 3.390625 -1.796875 L 3.390625 -4.125 L 4.34375 -4.125 L 4.34375 0 L 3.5625 0 L 3.453125 -0.609375 C 3.296875 -0.367188 3.101562 -0.191406 2.875 -0.078125 C 2.65625 0.0351562 2.382812 0.09375 2.0625 0.09375 Z M 2.0625 0.09375 "/></g></g></g><g fill="#000000" fill-opacity="1"><g transform="translate(312.30339, 244.978592)"><g><path d="M 0.609375 -4.125 L 1.578125 -4.125 L 1.578125 -3.328125 C 1.679688 -3.597656 1.835938 -3.816406 2.046875 -3.984375 C 2.265625 -4.148438 2.515625 -4.234375 2.796875 -4.234375 C 2.984375 -4.234375 3.113281 -4.21875 3.1875 -4.1875 L 3.046875 -3.203125 C 2.992188 -3.242188 2.878906 -3.265625 2.703125 -3.265625 C 2.421875 -3.265625 2.160156 -3.171875 1.921875 -2.984375 C 1.691406 -2.804688 1.578125 -2.519531 1.578125 -2.125 L 1.578125 0 L 0.609375 0 Z M 0.609375 -4.125 "/></g></g></g><g fill="#000000" fill-opacity="1"><g transform="translate(315.534423, 244.978592)"><g><path d="M 2.59375 0.09375 C 2.101562 0.09375 1.691406 -0.00390625 1.359375 -0.203125 C 1.023438 -0.398438 0.78125 -0.660156 0.625 -0.984375 C 0.46875 -1.304688 0.390625 -1.664062 0.390625 -2.0625 C 0.390625 -2.5 0.476562 -2.878906 0.65625 -3.203125 C 0.84375 -3.535156 1.097656 -3.789062 1.421875 -3.96875 C 1.753906 -4.144531 2.125 -4.234375 2.53125 -4.234375 C 3.164062 -4.234375 3.632812 -4.054688 3.9375 -3.703125 C 4.25 -3.359375 4.40625 -2.867188 4.40625 -2.234375 C 4.40625 -2.066406 4.398438 -1.898438 4.390625 -1.734375 L 1.40625 -1.734375 C 1.476562 -1.359375 1.609375 -1.085938 1.796875 -0.921875 C 1.992188 -0.765625 2.269531 -0.6875 2.625 -0.6875 C 2.90625 -0.6875 3.140625 -0.710938 3.328125 -0.765625 C 3.515625 -0.816406 3.6875 -0.882812 3.84375 -0.96875 L 4.140625 -0.265625 C 3.992188 -0.171875 3.789062 -0.0859375 3.53125 -0.015625 C 3.269531 0.0546875 2.957031 0.09375 2.59375 0.09375 Z M 3.46875 -2.40625 C 3.46875 -2.78125 3.382812 -3.039062 3.21875 -3.1875 C 3.050781 -3.34375 2.8125 -3.421875 2.5 -3.421875 C 1.875 -3.421875 1.507812 -3.082031 1.40625 -2.40625 Z M 3.46875 -2.40625 "/></g></g></g><g fill="#000000" fill-opacity="1"><g transform="translate(320.322448, 244.978592)"><g><path d="M 1.3125 0.09375 C 1.125 0.09375 0.96875 0.03125 0.84375 -0.09375 C 0.71875 -0.21875 0.65625 -0.367188 0.65625 -0.546875 C 0.65625 -0.734375 0.71875 -0.890625 0.84375 -1.015625 C 0.96875 -1.140625 1.125 -1.203125 1.3125 -1.203125 C 1.488281 -1.203125 1.640625 -1.140625 1.765625 -1.015625 C 1.890625 -0.890625 1.953125 -0.734375 1.953125 -0.546875 C 1.953125 -0.367188 1.890625 -0.21875 1.765625 -0.09375 C 1.640625 0.03125 1.488281 0.09375 1.3125 0.09375 Z M 1.3125 0.09375 "/></g></g></g></svg>